<svg xmlns="http://www.w3.org/2000/svg" xmlns:xlink="http://www.w3.org/1999/xlink" width="495.36" height="344.68" viewBox="0 0 371.52 258.51"><path fill="none" d="M0 258.51h371.52V0H0v258.51z"/><path fill="#fda872" d="m91.53 57.66.77.44.62-.08.5.34h.72l.87.34.27.47 1.33-.77 1.59-.03 1.27-.97.79.17.98.57.7.73.78.16 2.5-.52.1.25-.9.4-1.05 2.31.1.46-.05.7-.61 1.68 1.72.54.3.39.8.06 1.52-.56.81.33.21.35V66l.5.22.05.76.68-.43 1.28-.35.95-.87.76.17.85-.64 1.7-.03.15-.1-.04.89 1.12.3.31.56 1.11.75-.08.36.47.03.99.07.65.2.37 1.08.57-.04.25.77 1.22.3-.07.52.2.54-.36.48 1.99.08-.07.2.32-.24 1.07.79.37.3 2.83.01 1.93-.16.42.06-.19.74.81.29.14.34.45-.05.15.5-.37.64.21.32 1 .25-.18.5-1.21.75-.53 1.35.32.18 2.1-.15-2.23.7-2.39 1.49-.75.15-1.26-.56-1.15.03-1.37-.24-.18.04-1.47.19-.14-.23-.51-.14-.1-.38-1.6.02-1.02-.21-2.28 1.1-.12.01-.85-.02-.44.67-.7.47-.46.6-.75.27-2.15.4-1.4-.3-.32.17-1.22.03-.82-.32-1.4-.21-.34.14-.32-.36.23-.32-.26-.1-2.47.16-.87.12.45.25-.35.28.04.24.33.04.07.33-.2.21.08.77-1.57.64-.25.44.26.35-.46.3-.02.45.69.02-.19.2.53.72-.42.13-.77.21-.06.18-.85-.23-1.25.37-.87-.12-.47.67h-.62l-.21-.33.24-.19-.13-.23-.15-.21-.44.23-.02-.51-1.68.7-.08.14.12 1.12-.88.4-.24.61-.74 1.4-.1.24-.63 1.14-.18.25-.57.1-1.55.17-.11.47-.83 1.51-.37.23-.22-.1-.52-.73-.7-.08-.42.15-.32-.77-.53.23-.32.1-.11.5-.14.58-1.75 1.34-.77.72-1.76.78-.33-.44-.57-2.26-.86.96-.2.03-1.08-.12-.3-.58 1.76-.99.3-.6.5-.01-.01-.49.49-1.2.74-.58 1.65-1.51 1.06-.46.3-.73.42-.27.5-.02.27-.4.04-.42.96-.55-.7-1.21.36-.71.06-1.08-.88-2.01.99-.68 1.2-.04.38.15.25-.57 1.58.03.53-.6h.32l.7-1.45-.21-.68-.3-.11v-.4l1.94-.47.89.2.86-.89-.3-.29.5-.34.2-.44-.93-.4.2-.52-.28-1.17-.44-.25-.7.05-.06-.5-.03-.18-1.02-.1-.2-.29-.35.16-.08-.15-.49.6-.8.48h-1.01l-.68.41-1.82.01-.76.26-.69-.1-.93.35-1.52-.47-.2.2-.28-.1-.1.25-.76.41-.4.04-.06-.57.46-1.1-.1-.7.95-.79-.05-.2.8-.15.54-.37.13-.37-.32-.78.46-.13.19-.68-.33-.16.46-.22.1.15 1.4-.14.25-1.1-.2-2.03 1.22-.16.24.15.47-.22.52-1.31.88-.22.7.12.88-.67-.05-.26-.27-.07.05-.4.23-.2-.05-.58-.68.05.1-.55-.51-.57.15-1.28-.44-.8.27.08 1.15-.74 1.85-.49.22.34" clip-path="url(#a)"/><path fill="#feeacc" d="m276.71 70.95-.07.6.56.16.02.2.34-.03.25-.28.62.26.1.44.75.6.6-.08.2.19.67-.32-.06.46.45.75.19.42.53-.04 1.66 1.14 1.06-.03.64-.35 1.23.33-.01 1.15-.35 2.14-.45.68.27.8-.54.44-.12 1.57-.23.54-1.86 2.27-.74.42-1.1 1.1-1.03.44-.79.06-.97 1.01-1.6.42-.91-.7-.53-.4-1.08-.14-.56-.53-1.52-3.88-.8-.87-.05-.64.33-.69-.15-.44.26-.4-.21-.4.1-.36-.26-.53h-.33l.03-.23.12-.27 1.38-.66.36-1.16.77-.44.23-.03-.2-.82.61-.33 1.07-.4-.67-1.5.21-.22-.07-.53-.67-.59.67-.22 1.02.11.4-.3.23.11m15.19-3.15.11.67-.28.13-.4.1-.2-.38-.74.1-.14-.25-.7.2 1.02 1.33-.18.33-.43.07-.35-.22.17-.39-.21-.2-2.64.65.25-.33-.12-.57 1.74-.95-.43.02-.36-.4.33-.1-.28-.76.24-.2.86-.3.12-.68.64.22.11.23.5.12-.05.39.37.58 1.42.34-.37.26" clip-path="url(#a)"/><path fill="#feeacc" d="m291.65 64.88.2.53 1.7-.2v.17l.93-.3 1.02-.04-.85.63-1.49.71.1.48 1.2.82-1.72.5-.2-.08.44-.29-.05-.19-.29-.05.12-.6-1.17-.09-.08-.12.63-.4-.37-.35-.1.12-.53-.16-.31-.3.01-.26.57-.57.24.04" clip-path="url(#a)"/><path fill="#feedd3" d="m220.84 37.7.57.34.09.7.25 1.02.33.24.25.62.87.28.72.57.37-.24.29.28.67-.16.49.12.88-.07.07.36.26.09.11-.28.72-.22.85-.82.6.15.42-.36.35-.36.2-1.18.79.05h.33l.2.03-.03 1.43 1.7.64.08.73-.16.37-.41.9-.54.22-.13.55.23.15-.25.27.2.2-.72.4-.06.66-.09.8-1.12-.24.12-.6-.2-.15-2.03-.97-.43.15-.55-.53-.11-.18-.14.13-.04 1.04-.43.07-.07.47.72.93-.23.4.2.48 1.08-.05 2.83.9.64.21-.3.05-.08.25.4.12-.12.51.27.08-.06.33.22.07.52.1.06-.2.34.01.04-.17.58.22.07-.3.63.33.03.64.44-.06-.04.31.54-.05v.34l-.7.08-.26.31-.73-.02.05.48.32 1.19.54.66-.02.51 2.12.28.47.1.5.31.26-.3.33.14.88.48-.3.53.21.96-.22.97-.16 1.65.3.06.07.32-.96.38-.04.54-.3.27.27.13-.06.39.55.1.22.64.17.05.38 1.04.66.7-.48.45.33.63 1.16.45.87-.08-.15.43-.9-.1-.46.13-.23-.29-.23.42.42.26.16.15-.29.45.27.5-.16.68-.7 1.18.18.13 1.08.2 1.73 1.41.15.38-.25.53.24.41.58.42.78 2.11.49-.06.38.22.18.57-.08.89.47.24-.14 1.23.6.88-.82 1.42-1.37.29-.65 1.42-1.2.43.54.48.05.5.21.04.13-.28.17.02.02.28-.08.5-.5.33.28.34-.64.99-1.9.66-.27.06-.02-.28-1.81.45-.92.15.02.46-.28.26-.72.22-.43-.11-.3-.76-.55.27v.19h-.5l-.46-.39-.31-.01-.17-.12-1.36.4-.52.14-.26.54-.22-.04-.06.38.95 2.14-1.14-.23-4.15 1.25-2.06.98-.36.3-.47-.2-.1.46-.68.22-1 1.47.06 1.09.64.5.14.35.04.36-1.4.48-.7-.03-.33-.1-.06-1.15-.68-.07-.88.24-.15-.3-1.18-.19.31-.74-.8-1.46-.2-.82-.56-.64-.4.23-.36.15-.05-.85-.27-.31-.5-.08-.23.23-.2-.06.03-.75-.38-.13-.31.2-1.07-.3-.54-.41-.09.18-.74-.05-.33-.1-.22.26-.3-.15-.1.49-.8-.28-.68.09-.03.45-1.08.4-.66.12-.48.3-.32-.03-.29-.16-.24.14-.2-.54-.72-.02-.38-.57-.28.1-.09-.21-.32-.06-.11-.39-.21.08-.21-.28-.32.17-.6-.14-.58.18-.26-.4-.04-.78-.27-.6.17-.29-.22-.31-.27-.46-.64-.8.17-.6-.3-.44.03-.48.08-.5-.59-.62-.26-.98-.22-.4.28-.12.37.35.57-.45.82-.18 1.14-.83-.06-.06.22-.51-.14-.2.21-.12v-.36l.3-.42.42-.08-.06-.22.68-.64-.04-.3.3-.33.13-.67-.33.48-.62.35-.57.24-.16-.12-.28-.1-1.02.32-.29-.47.3-.98-.7-.53-.29-.56.24-.61.2-.37-.16-.05-.18-.98.24-.31-.08-.4-.53-.04-.06-.5-.43-.82.19-1.36-.36-.23-.69.18-.26-.61-1.08.08-.3-.4.27-.01.13.2.12-.28.54-.19.27.28.42-.44-.27-.5.3-.45-.26-.2.16-.2.25.2.4-.5-.34-.89-.84-.13-.18-.33.19-.17.45.1.09-.24-.24-1.33.07-.22.4-.11-.3-.78h-.23l-.1-.32-.48.02-.26-.76-.3-.1.17-.47.58-.09-.15-1.18-.77.06-.07-1.12-.34-.79.38-.43-.31.03-.1-.18.25-.9 1.25-.24.27-.4.08-1.04.41-.45.41.43.11-.07.2-.23-.01-.5.56-.15.13-.15-.26-.62.26.2.05-.4.5-.5.48.05-.24-.96.31-1.2.63-.35.85.05 1.47-.6.65.01 1-.65.55.07.25-.05.6-.4-.47-.77-.13.06-1.43.4-.32-.48-.34-.03.06-.5-.33-.53-.03-.59.9-.15.26-.37-.09-.18.38.09.22-.35.1-.51.33.18.83-.1 1.13-.35-.07-.73.6.06-.18-.26.3-.73-.07-.23.41-.06.39.31.98.07.03.58.35-.1.09.2 1.04.08.43.9.51-.06.14.55.26.06-.63.24-.02.52-.37.46.11.22-.47.24-.04.37-.69.16-.16.09-.59.47-.21.09.13.43-.23.06.03.2.45.32-.42.33.91.18-.02.3-.36.15.47.54.56 1.43h.33l.38-.54.31-.58.34-1.35.66-.31-.23-.8.13-.67.33-.37.76-.3.21-1.14.62-.66.12-.54-.6-1.5-.16-1.57.97-1.13.4.36.09.6-.21.23-.53.06-.13.24.3.28.8-.1.52-.35.39-.9-.03-.52-1.06-.94-.13.08-.3-.3-.21-.64.5-.95.2-.06.3.3.38-.14.27-.33-.17-1.42.54-.13.92-.21 1.54 1 .56.11-.17.83.1.33" clip-path="url(#a)"/><path fill="#fff3e2" d="m118.97 67.7-1-.08-.46-.03.08-.36-1.11-.75-.31-.56-1.12-.3.04-.9.27-.17.7.06.67.64 2.65.4.14.25-.24.23-.31 1.56" clip-path="url(#a)"/><path fill="#fff3e2" d="m118.97 67.7 3.04.35.48-.02.54-.38.85.19.72-.2.59-1.28v-.42l-.5-.96-.83-.99-1 .34-.31-.35.17-.51.4-.31.13-.67 1.18-.28.74 1.4.64-.22 1.72-.66.83-.27 1.08.11.43-.24 1.3-.06-.25-1.45.13-.48.31-.03.28-.78-.02-.7-.3.02-.06-.74-.99.06-.53-.22-.13-.44-.13-.8-.8-.74-.1-.6.45.76 1.04-.28.16.23.4-.02v-.4l.6-1.04-.29-.53-.26.04-.41-.3-.24.23-.5.47h-.58l-.27-.78.01-.52.42-.37.26-.2.9-.16.47-.63 2.1-1.35.26-.14.72.85-.24.56-.2-.05-.28.98.73-.12 1.74.37-.23 1.28.16-.03.22.37.06.84.42.11 1.56-2.21.46-.04.1-.35.05-.84-.3-.45-.04-.6 1.17-.3.11.03.88.98.5.64.77.25.43.95.66.35.87.12.84-.05 1.33-.74.12.35.69.05.8.66.21.34 1.02.29.06-.05h.84l2.17.65.1.37-.2.27.17 1.02.23.16-.14.26.15.08-.45.81.12.03.46-.33.32.06-.02-.42.31.28.4-.03.58-.87 1.36-1.15.1-1.8.18-.21-.2-.18.48-.05.48.2.57-.32.39.24.42 1.02.1.57h.43l.22-.34.35-.04-.08 1.09.2-.09.45.63.8.32.1.4.23.12.1.58.4.46.07.84 2.19.4 1.04-.44-.5 2.66.68-.2.7.58-.07.4.08.46-.81.68-.06.25.4 1.2-.15.12.92 1.13-.38.35-.22.2.08.18-.52-.08-.62.25-.44.27.14.43-1 .69-1.13.41-.47-.46-.23.19-.97-.74-.41.13v.56l-.29-.06-.34.47-.48.25.21.47.6.38-.05.52-.21-.1-.6.35-.46-.07-1.81.91-.48.76-.9.49-1.26.1-.32.14-.35.6-.33 1.88-.43.22-.46-.22-1.03.08v-.31l-.22-.14-1.17-.18-1.36-1.54-.41-1.05-.08-.22-2.17-.4-1 .12-3.42.46-.18-1.28-.02-.25-.48-.01-.19-.24V71l.3-.1-.34-2.75 2.42.04.88-.57.4-.23.4-1.36.1-.86-.27-.32.18-1.05.47-.57.6-.32.12-.75.8-.81-.82-1.3-2.35-.57-.12-.14-.23-.56.04-.6-1 .08-.2.17-.1.32.47.2-.32.2.3.18-.54.26-.28-.07-.3.28-.92-.2-1-.5-.8-.08.02.18.13.6-.18.81.2.04-.26.45 1.13.47.51.51-.3.12.03.55-.5 1.38-.08.86.04.56h-.6l-.47.17-.8-.17-.57.47-.45-.2.14-.18-.25-.05.05-.3-.21-.2-.56.03-.03 1.6.25.35.5.17.2.38-2.89.07-1.35.25v.36l.39.46-.19.44-.92 1.42-.51-.1-.72.57-.73-.08-.12-.05-.46-.2-.07-.22-.41-.05-.14-1.31-.44.09-.56-.26-.35.25-.53-.37-.26.08-.1.37-.36-.25-.23.14.2 1.34-.38.36-.15.69-1.99-.08.36-.48-.2-.54.07-.51-1.22-.31-.25-.77-.57.04-.37-1.08-.65-.2" clip-path="url(#a)"/><path fill="#f98455" d="m79.22 103.58-.31 1.96 4.03-2.3.92-.86.52.44.23-.1.66-.3 2.87-.55.97-.22.89-.6h1.4l.36-.36.6.08.2.26-1.33 1.39.42.97.94-.6 1.3 1.07 1.46.4.66.93.23.75-.79.65.28.33-.02.68.65.95-.16.17-.74.71-.89.74-.96.17-1.3 1.01-.3.45v.78l.04.4-.18.9-.47.79 1.14 2.97-2.97-.78-5.86 3.86-2.5 3.2-2.38 1.82-6.76 6.54-1.84-1.87-.23-.2-1.09-.16-.58.43.55-1.28.05-.58-.17-.01.16-1.18-1.5-1.22-.33-.08.05-1.13.48-1.75-.19-.13-.02-.45-4.13 1.83-1.67 1.11-.13.5-1.2 1.69-.25.33-.98-.02-.65.24-.68.37-.83-.06-1.93.98-1.96.99-.81.96-3.57 1.4-1.24-.15-.08-.35-.43-.08.22-2.76.13-1.71-.52-1.22-1.73-2.38-.24-.78.94-.57 1.16-1.11.96-1.45 1.13-1.32.84-.81.73.92 1-.53 3.53-1 2.24-1.3.33-.2 1.64.1 1.32-.78.79-.94 1.16-2.27 1.53-1.02 1.66-.42 1.63-1.55-.57-.13-.28-.52-.62-.1-.73-.87 1.1-.86.14-.6-.37-.28 1.02-.8.8-.38.43.25.6-.1.34-.22.21-.47-.47-1.4.32-.11 1.66-1.23.8-.09 1.34-.68 1-.37.28-.6h.51l1.06-1.26.87-.46.16-.45.66-.25.7-1.02.2-.03 2.15 3.96-.2.84-.41 1.78-.8.72" clip-path="url(#a)"/><path fill="#feeed7" d="m290.28 108.56.22.96.2.13.22.1.74-.46.72-.18.22.14.52-.27.66-.45.3.01.23-.33.34.13.8.82.71.26.8-.04.38-.25.3-.68 1.03.18 1.86-.45.02.37.48.42.74.33.77-.17-.02.67.88.54 1.82.09.3.17.23.48 2.77-.18.68.78.75.3.86.85.24-.1.69.34.51.61.43.2.39-.3.92-.14.62-.8.52.23.71.02.32.37-.72.57-.04.39.18.36 1.24.66.28 1.2-.73.81.12.28-.7.83v.7l-.34.51.58.7-.3.76.14 1.12.32.07-.36.63.36-.05 1.09.4.93.72.47-.09.73.84 1.26.64.67.1 1.02-.42.32.42.27.02.9-.43.22.3.13.82.6.43.45.02.8.4.94-.32.68.66.64 1.07.37.08.24.62.8.54-.1 1.36.65.36 2.19-.04.41.34-.02.75.35.33.66.91 1.1-.38.06-.36.25-.13 1.29.13.62-.47.57.13.23.28.41-.36.5.04.22-.35.72-.15 1-1.32.42-.02.38.23 1.21-.3 1.06.1-.14-.35.15-.25.16-1.5-.57-.64-.15-.66.6-.66.3-1.61.39-.36-.12-1.43 1.34.17 2.84.91.26.22.3-.54 1.2-.06.1-.67-.87-1.06.25-1.15 1.45-.44.14-1.14.88-1.66-.06-.34.36-.16.15-.8.67-.31 1.34.2.9-1 .46-.14.74.42.28.69.8.94 1.12.8.07.35-.36.83-.04.64.49.43.34-.01 1.27.45.5-.06 1.05.66.61.7 1 .38-.31.72.24.6-.17 1.24-.6.56-.27 1.88-.82 1.15.35.37.16.93-.25 1.25.3 1.54-.62.84.2.64-.27.2-.23-.06-.27.5.29.66-.35.3.14.63-.55 1.4-.93.77-.74.1-.22.29v.56l-.32.13.88.73.1.5.51.65.17 1.68-.16.6-.5-.06-2.77 2.28.69.5.16.53.6.55-.2 1.15-.48.41h-.52l-.8 1.87-.76.22-.14.35.84 1.48-.11 1.44.24.49.49 1 .1.62-.14.23.2.2.53.2.88-.37 1.82-.13.21-.21 1.3.94 1.7 1.8.62.24-.07.5-.52.69.22.8-.27.69.31.3-.34.98.1.43-.8 1.23-.04.45.29.63-.53 1 .09.56-.51.26h-.52l-.04.54-.46.68-1.27-.77-1.46-1.6-1.64.84-1.02-.7-.4.01-.69-.46-1.45-.2-.15.72-.92.78-1.08-1.04-1.11.58-.26-.32-.94-.05-.13-.22.22-.38-.1-.42-.53-.67-.15-.65-1.22-.43-.2-.4-.44.06-.74.65-.6-.38-.19-.37-.16-1.59 1.36-2.17-1.1-1.34-.45-1.52-1.2.73-.68 1.39-.7-.44-1.02-.28-.05-.32-.77.23-1.63.95-1.96.57-.07.34-.63.26-1.2-.18-.52-.41h-.34l-.27.6.2.51-.34.9.32.48-.08.7-.38.64-1.32.25.08.44.45.48-.6.74-.52.24-.27.96-.49.51-1.16.21-.22.75.73.66-.21.36.27.7-.2 1.06-.71.38.2.94.32.24-.32.7.01.38.27.3-.36.55.1.7.52.6.15.91-.1.4-.82.91.03.41-.24.23.2.49.84.34.3-.14.3 1.44.33.29 1.02-.26.22.25.03.56.94-.19.64.16.6-.8.71.26.15-.35.8-.3.3.3.8.09.3.61.05 1 .13.17.61-.35.31.05.44.9-.36.47.14 1.48-.14.34-.47.3-.68-.2-.38.07-1.2.98.1.4-.2.5.24 1.02-.77.42-.45.54-.28-.06-.16.27.1.52-.26.47-.14.98.67 1.17.28 1.08 1.73 1.1-.06.4.63.63.69.33.18.4-.14.52.6.28-.1.6.17.65.68.56.36.96-.13.42-1.89 1.72-.39 1.05-1.07.65-.3-.08-.41.2-1.11-.22-.45-.33-.94.05-.9.4-.75.87-.6-.35-.34-.55-1.18-.55.73-.63.04-.73.28-.29.03-.35.25-.13-.54-2.16-1.94-1.2-1.56-.37-1.04-.47-.34-1.3.7-.62.03-.24-.37-.46.3-.64-.4-.1-1.17-1.06.43-1.28.83-.92-.1-.7.15-.3-.24-.16-.67.07-1.63-1.38-.67-1.11.25-.54-.47-.12-1.5.5-.35.38.07.42-.46.22-.17-.54-.46.01-.7-1.16-1.88.83-.27.57-.97.7-.24-.26-.7.21-.54-.2-.26.31-1.11.1-.09.33-.86.86-.83.24-.56.5-1.4.37-.47.64-.7-.05-.95-.98-.8-.4-.31-.45-.6.17-.73.7-.28.4.31.93-.29.16-.47.84.07.26.61.23-.01.74-.11.37-.5.43-.29 1.54-.34.14-.58.1-.68-.36-.43.02-.54-.38-.04-.33-.38-.35-.5.36-.07.41-.73.03-.7.4-.1.32-.83.42-1.16-.26-.45.12-.66-.84-.88-.12-.51.25-.22-.16h-.84l-.49-.47-.86-.42-.18-.42-.43.04-.38.41-.82-.66-1.61-2.15-.16-.66-.2.03-.45-2.2-.62-.54-.33-.92-1.05-.37-.3-.45-.25.07-1.2-.61.16-.36-.09-.5.27-.1.28-.53-.56-2.68-.41-.43-.17-.56.23-1.83.28-.67-.13-2.4.5-.72-.25-1.24-.98.05-.05-.5.94-.06.14-1.47-.14-.9.26-.27-.46-.06-.27.35-1.65.84-.73 1.08.12.3-.15 1.07-.85 1.1-.23.04-1.65-.73-.37-1.04-.58-.2-.51-.63-.23-.58.4-.62v-.43l-.87-.68-.57.6-.32-.13-.94.18-.13-.25-2.08.21-1.6.82-.63.04-.3 1.06-.36.43.25.53-.3 1.5.33.58-.92 1.1-1.06.23-.45.3.22 1.83.87.69.2.5.49.28.38-.08.47.67.13.92-.27.19.24.22-.5.75.25.68.4.32v.3l-.66 1.18.15.23-.08.42.21.13.3 1.01 1.1.25.1.49-.13.27.3.63-.6.89.09.46.52.62-.33.37-.1.7-.74.32-.29.6.27 1.41-1.03.85-.33.85-.67.41-.17 1.05-.39.24.08.57-.32.72.18.55-.24.44.12.9-.27.89-.86-.16-1.15.52.17.58-.33 1.1-.35.4-.96.29-.58 1.68.26.77-.25.33-.07.65-1.02 1.07-.66-.2-.18-.1-.14.05-.73.2-.5-.1-1.08-.94-.6-.6-.05-.52-.95-1.38-.61-.53-1.73-.86-.12-.11-.65-2.3-.4.2-.27-.48.4-.24.13-2.58-1.19-1.8-.68-1.87.13-.44.38-.15.75-1.2.4-.78-.9-1.45.47-.61-.25-.45.23-.83h.14l1.36-.7.33-.9.15-.75-.12-.78.18-.25-.63-1.82.7-1.27-.45-.77.93-.5-.1-.77-.94-1.68.04-.54-.2-.78.33-.55.3-1.37-.78-1.22.02-.5-.53-.32-.4-.25-1.02.45-.54-.06-.66-.51.2-.27-.12-.35-.58-.56.1-.28-.6-.96-.72-.66-.03-1.27-.51-1.49.4-.22.1-.45-.3-1.11.43-.9-.11-.33.27-.41v-.48l.69-1.06.15-.79.5-.15-.07-.63-.73-.6.04-.69-.47.1-.57-.47h-.36l-.8-.89-.83-.08-.93.33-.84.7-.55-.12-.3.13-.21-.93.26-.85-.44-1.4-.38-.23-.14.91-.78.67-1.4-.52-1.24.85-.15.42.14.67.78 1.1-.09.5-.98.9-2.13 1.08-1.73.56-.89.79-.9-.06-.16-.86-2.29.93-1.21-.5-2.71-.99-.41.4-.51.06-.88-.56-.82.69-.96-.31-.18-.62-.17.05-.2-.27-1.54.22.25-1.08-.08-.75-.26-.36.2-.92-.2-.42.09-.7-.14-.39-.72-.1-.78-.68-.1-.6-.43-.49.1-.37.4-.33.07-.63-.28-.32.5-.7h.4l.97-.95-.39-.77v-.66l.02-1.78.34-.32.63.1.5-.9.6-.2.66.51.65-.42.1-.4.63-.16.72-.68.96-.54.12-.28-.37-.94.27-.83 1.4-1.04.32.09v.43l.25.11.73 1.31.9-.38.48.02 1.06-.67-.25-.75.67-1.72-.06-.39.66-.39.43.09.2-.25-.48-1.41v-1.44l.52-.4 1.07.1-.03-.46.38-.16.58-.69 1.1-.34.26-.51.9-.2.77.07.66.48.64-.13.03 1.38 1.02.31 1.77-.72.3-.28.26.09 4.03-.78.86-.7.79-1.85.35-.23-.05-.43.3-.7.66-.58-.14-.61.15-1.26.59-.07.61-.84.34-.04.67-.05 1.63.46-.02.41.7.9.1.76.51.32 1.24-.75.12-.26.94-.3.48-1.08.8-.31-.3-.68 1.92.08.86.3 1.25-.76.7-1.02.39-.33.68-1.24 1.04-.3.27-.6.45-.33.43.35.16.55.8.55.69-.39.88.23.53-.23 1.31.15.94.6 1.32-.17.36.43.3-.16 1.12.27 1.61-.04 1.27.56 1.44.27 1.34.67 1.24 1.35.43-.46.01-.87.12-.22.85.03.23-.62-.16-.62-.03-.34.64-.76.54-.2.45-.47-.74-.4-.06-.55.62-1.13.06-.6.57-.25-.07-.17.26-.13.18-.52.49-1 1.09-.25-.08-1.46.5-.47 1.37-.2.36-.28-2.28-2.94-.52-.98-.27-.87-1.19-1.76-.51-.78-.6-1.03-.12-.28.02-.37.47-.17.02.4.28.38.5-.87.4.31.22-.35.91.05.43-.4 1.04-.27.73-.25.93.73" clip-path="url(#a)"/><path fill="#fff7ec" d="m197.64 131.68-.01 1.14.52-1 .23.25 1.12-1.17.58-.09.54-.5.43.52.03 1.37.46.26.45.1.66-.37 2.63-.22.39.01.3-.25.56.44.79-.01.72.95-.24.51-1.1.58-.27.53-.32 1.6-.35.42.41.6-.12.6-.76.46-.62-.12.03.23.53.32.78-.33.04.53-.27.52.6.59.43 1.29-1.43.57-.53-.22-1.38.63-.24-.28.05-.37-.76-.26-1.1.2-.15-.23-.52-.18-1.43 1.01-.08-.7 1.67-.78.78.44v-.3l-.6-1.42-.66-.07-.66-.61h-.43l-.9-.95.28-.66-.07-.37-1.1-.42.3-.75-.03-.54-.47-.9-.2-1.64.19-.31-.09-.78-.48-.06-.2-.33.22-.56.44-.05-.01-.39.28-.4.54.06.15.23-.13.18.36.5-.51.42-.27.53m-8.99-14.09.14.25.79-.05.73.32 1.53-.21.48.21.28.79-.39 1.5.3.43-.87.66-.55.7-.27.75 1.03.46.68.62 1-.1 1.2-.46.25.35-.21.9.38.4-.18.7-.33.4.07 1.77-.37.46-.02.56-.35.36.09.73.35.48.05.73-.29.51-.22 1.19.33 1.46.28.08-.05.53-1.04.91.34.66 1.3 1.22.16.52.72.5.38-.02.8.86-.7.58-2.13.24-1.35 1.24-2.55 1.94-.62-.2-.55.07-.73-1.07-1.6-.68-.4.9-.94.1-1.1-.98-.92.17-.52-.27-1.38.7-.37-.2-.7.76-.97.46-1.92-1.73-.66-.34-.89-.06-.2-.52-.69-.66-.09-.43-1.2.14-.44-.23-.7.25-.41-.24-.46.06.56-.57-.1-.67.7-.48.05-.6-1.75-3.28.26-.87.84-.62.2-.44-.1-.52.66-.19v-.85l.29-.18.17-.62-.08-.43.03-.45-.3-.72.21-.91 1.02-.45.24-.75.7-.67.52.35.57.09-.17 1.13.09.4.3.24.87-1.92.97-1.48 1.76-1.28.6-.68-1.08-1.54-.07-.58.94-.65 1.14-.58h.42l.42-.37 1.23.56 2.05-.36v-.36l.46-.16.46.11 1-.72.6-.06" clip-path="url(#a)"/><path fill="#fff4e5" d="m185.76 45.52.14.2.28-.04.7-.84 1.58-.29.22.2.31.47 1.16-.25.68.15.72.55-.2 1.26.25.67.95.59.48.54.63.73 1 .25 1.97.1 1.69.46.67-1.1.58-.23 1.32.73.8.37-.63.36-.3 1.2.23.95-.48-.06-.5.5-.05.42-.26-.2.26.61-.13.15-.56.14v.5l-.19.24-.1.07-.42-.43-.41.45-.08 1.03-.27.4-1.25.26-.26.9.1.17.32-.03-.38.43.34.79.07 1.12.77-.06.15 1.18-.58.1-.16.46.29.1.26.76.48-.02.1.32h.22l.3.78-.4.1-.06.23.24 1.33-.09.24-.45-.1-.2.17.19.33.84.13.35.9-.4.49-.26-.2-.16.2.26.2-.3.45.27.5-.42.44-.27-.28-.54.19-.12.28-.13-.2-.27.01.3.4 1.08-.08.26.61.7-.18.35.23-.19 1.36.43.83.06.5.53.04.08.39-.24.3.18.99.16.05-.2.37-.24.61.28.56.72.53-.3.98.28.47 1.02-.32.28.1.16.12.57-.24.62-.35.33-.48-.12.67-.31.32.04.31-.68.64.06.22-.41.08-.32.42.01.36-.2.12.13.2-.22.5.06.07-1.14.83-.82.18-.57.45-.37-.35-.28.11.22.41.26.98.59.62-.08.5-.04.48.3.44-.16.6.64.8-.21.62-.17.7-.82 1 .07.87.33.53-.03.79.42 1.47-.42 1.45.2.79.55.15.15.23.27 1-.06.86-.18.44.25.89-.24.56-.56.36-1.2-.25-1.1.04-.08-.42-1-.34-.06-.71-.24-.12v-.41l-.85-.89.16-.12-.25-.52-.44-.42-.19-.55.07-.7-.08-.46-.6-.97-.03-.6-.23-.98-.14-.43-.48-.13.12-.63-.19-.26-.3-1.88-.7-1.26-.36-.2-.17-.35-.34-1 .44-.84-.21-.06-.83-.82-.67-.34-.48.17-.15-.32-.71.1-.24-.54-.63.1-.16.6-.5.27.01.74-.75-.18-.36.1-.64 2.35-.95.56-.3.6.12.5-.24.95.18.46-.83-.05-.67.43-.77.08-.25-.38.11-.28-.17.02-.03-.09-.49-.03-.44-.5.14-.39-.46-.18v-.19l1.08-.27.12.2.31-.02.38-.62-.04-.57-.38-.33-1.15.5-1.36.21-.87.17-.15.28-.38.24-.42-.3-.83-.08-.24-.88-.57-.92-.83-.3-.78.32-.45.57-.52.06-.27-.24-.5.13.52 1.03-.94.32-1.64.18-.08.19-1.1-.41.14-1.42-.24-.63-.72-1.03-.07-.45-.48-.56-.2-.21-.66.63-1.05.19-.2-.2-1.17-.08-.42.22.08 1.05.77 1.32-2.2 2.12-.9-.21-.99-.72-1.17.16-2.13.6-1.1.56-.92-.36-.26.14-.99-1.34.13-.51-.19-.2.2-.17.13-.67-.2-.25.05-.3-.22-.13.25-.16.4-.16.62-.71.66-1.66.1-.15.88-1.94.96-.54.52.04.37.04.54-.6.5-.48-.21-.32.08-.51.8-1.6.26-.03v.24l.44.36.18.14.08.16.95.1 1.3.05.04 1.72 1.21-.34 1-.22-.09-.43.72-.44.08.2.5-.48.73-.25.5-.54-.27-.68.63-.51.08-.5-.2-.32.67-.83.3-.09.1-.32.21-.41.33-1.36-.27-1.16-.07-.28-.49-.02-.03.23-.75-.16-.25-1.38-1.28-.47-.11-.33-.6.05-.62-.67-.9-.35 1.57-.66.24.64.12-.65-.42-2.07-.55-.65.14-.25-.2-.63-.48-.4-.58.54-.02.33-.28.04.06-.41-.69-.58-.68.2.5-2.66-1.04.44-2.19-.4-.06-.84-.4-.46-.1-.58-.24-.12-.1-.4-.8-.32-.46-.63-.19.09.08-1.1-.35.05-.22.35-.43-.01-.1-.57-.42-1.02-.39-.24-.57.33-.48-.2-.47.04.19.18-.17.22-.1 1.8-1.37 1.14-.57.87-.41.03-.31-.28.02.42-.32-.06-.46.33-.12-.03.45-.8-.15-.1.14-.25-.23-.16-.18-1.02.2-.27-.1-.37-2.16-.65h-.84l-.06.05-1.02-.29-.2-.34-.81-.66-.69-.05-.12-.35.8-.33 2.26-.32.4-.39 2.01-.56.97-.48.3-.6.99-.93.53-1.88 1.1.06.38.45.76.03 1.05-.57.65-.13 1.28-.05.71.3.3.26.68.82.4.9-.33.95.09.62.68.89 1.2.1.63.27.4.06.25-.18.53-1.33.36-.14.37.13 1.05.23 1.66-.14.64.16.08.05.89.47 2.08-.55 1.05-.94.63-.12.32.04.96.77.53-.05.54-.36.34-.62.12-1.12.33-.53.43-.32 1.06.03.8-.1.16-.77.7-.48.94.1.5-.02.7-.88.8-.33.74-1.32.6-.47.98.05.57.51.22 1" clip-path="url(#a)"/><path fill="#fff2e1" d="m215.01 45.67-.21 1.14-.76.3-.33.37-.13.68.23.79-.66.31-.34 1.35-.31.58-.38.54h-.33l-.56-1.43-.47-.54.36-.16.02-.29-.91-.18.42-.33-.45-.33-.03-.2.23-.05-.13-.43.21-.1.59-.46.16-.09.69-.16.04-.37.47-.24.29.27.39-.12.25.3.2-.15.4.08.44-.65.28-.05.1-.45.23.07m17.07-14.37-.59.69.61.06.47.72.6-.03-.58.58.41.22.72-.42.77.27.2.14.23.87 1.8-.17.11.1-.24.27.5.58-.12.26-.91.23.25-.47-.22-.25-.26.26-.15-.27-.53.13-.09.36.55.2-.09.43-.4.38.04.56.7.03 1.03 1.17.12 1.67-.01.15-.2.08-.42-.24-.31.11-.42.65-.52-.11-.46-.33.73-.84-1-.45-.4-.79-1.58-.75-.59.13-.36-.17-.47.23-.24.07-.18-.5.37-1.13.14-.23.8-.17-.3-.37-.66-.1v-.58l-.35-.23-1.88-.27.26-.75-.23-.54.56-.33-.06-.22.36.11.34-.63.43-.01.1-.19.57.2-.2-.86.78-.42.16.84.31.07m-18.85-8.7.18.73.98-.34.37.45.7-.48.99.21.37.32-.06.27.33.15-.12.68-.38.2-.05.24.21.55.1.25.33.1-.3 1.12.66.93.3.12.13-.22.73-.57.24.01.17-.22-.17-.18.6-.56-.4-.07.15-.84-.35-.64.08-.9h.18l.05-.44.6-.22.25.5-.22.51h.34l.43.45.7.23.38-.11.15 1.1.43.4-.4.36.35 1.28.4.37.39-.07.1-.34 1.2-.66.94.32.35.35-.14.2.97.7-.14.62-1.25.08-.26.54-.46.27-.24 1 .54.99h.5v.16l.69.19.24.25-.34.54-.44 1.7.12.46-.8.23-.03-.5-.5-.13.07-.56-.57-1.41-.25-.22-.32.16-.6.24.04.26-.33.1-.48-.21.12-.21-.34-.09-.5.27-.52-.3.12.62.63.36.21.8h-.2l-.06.35-.38.3-.78.1.42.38-.04.24-1.54-1-.92.22-.54.13.17 1.42-.27.33-.38.13-.3-.3-.2.07-.5.95.02-.36-.67-.08-.34.66-.5.07-.77.56-.53-.36-.5-.07-.07-.53-1.3.33-.56.23.1.92-.6-.33-.03-.38-.5.33.5 1.12-.14.56-.7.09-.74-.29-1.59.05.09.57h-.15l-.4-.34-.36.1-.17-.58-.53-.07-.07.22.38.38-.52.26.53.3-.34.17-.48-.35-.29-.83.27-.87-.12-.1-.65.5-.3-.25h-.36l-.3.12-.66-.42-1.03-1.08-.9.06-.53-.95.23-.48.6-.1.36-.5-.67-1.19-.45-.14-.16-.3.97-1.37.72-.13.85-.82.38.07-.1-.24.4-.37.78.04-.04-.53.18-.22-.33-.15-.25-.89.49-.53.08-.77.77-.5.56-1.24 1.2-1 .55.3.48-.34.57-.08.06-.21.79.65.5-.88.49.02 1.57-.77.81.48-.03.3.29-.01.85-.41-.17-.92-1.04-.37.15-1.45.34-.36.4.29" clip-path="url(#a)"/><path fill="#feeace" d="m198.26 115.25.2.27.86-.29 2.34.3.02-.5.13-1.68 3.24.91-.07 1.47-.23 1.4 2.47.91 1.79-.39 1.84.03 2.24-1.22.21.72.03.26-.46.75-.49.25-.15.85-.42.28.19 1.79-.13.74.24.09-1.18.12.3.5-.28.82-.97.49-.94.09-.33.56-1 .4-.37-.5-.56.03h-.4l-.37 1.14-1.3.49-.48.62.59.16.62.48-.09.23.49 1.02-.88.59-.1.26.37.83-.27.83.32.62-2.63.22-.66.37-.45-.1-.46-.26-.03-1.37-.43-.53-.54.51-.58.1-1.12 1.16-.23-.24-.52 1 .01-1.15.27-.53.5-.42-.35-.5.13-.18-.15-.23-.54-.07-.28.41v.4l-.43.04-.23.56.2.33.5.06.08.78-.18.31.19 1.63.47.9.02.55-.29.75 1.1.42.07.37-.28.66.9.95h.43l.66.6.66.08.6 1.41v.3l-.78-.43-1.67.78-.25-.7-.43-.1-.73-.84-.67-.25-.8-.86-.37.03-.72-.51-.17-.52-1.29-1.22-.34-.66 1.04-.91.05-.53-.28-.08-.33-1.46.22-1.19.29-.5-.05-.74-.35-.48-.09-.73.35-.36.02-.56.37-.46-.07-1.78.33-.39.18-.7-.38-.4.2-.9-.23-.35-1.22.46-1 .1-.67-.62-1.03-.46.27-.76.55-.7.87-.65-.3-.42.4-1.51-.3-.79-.47-.21-1.53.2-.73-.3-.8.04-.13-.25-.59.06-1 .72-.46-.11-.47.16-.46-.32-.35-.56.8-1.34.71.07.5.66.35-.15.91-1.02.43-.22.99.02.32.3.54.1.4-.2.08-.25 1.53-.04.38-.1 1.25 1.23 2.62-3.56 1.2.25.08 1.65-.15.31" clip-path="url(#a)"/><path fill="#feefd8" d="m232.76 90.94 1.54.45 7.92-1.19.9.2 1.04-.13.41.06.25.5-.44.19-.29 1.5-.57-.12.32 1.81.02.45.65.09.3-.36.66-.12.99.47.2.15-.1.13.65.39-1.01 1.26-1.4 2.52-.53.42.15.73-.31.98.67.77-.35.81.14.5-.9.41-.43.69.03.32 1.62.62-.72.48-.1.5-.3.14.02.51-.8 1.27-.22 1.31-.43.09-.33.47-1.4.74-.52-.23-.98.26-.07.67.23.54-.84.42.16.29.45.02.76.44.07.95.33.16.2.6.83.55.7 1.25.31-.11-.05.34-.69.27 1.07 1.74.25-.2.6.72 1.12.36-.53.4-.15.9-.54 1.06.31.78.4.42-.1.22-1.16.14-.39.37-.64.23-1.35.74-.16.27h-.4l-.1.31-.66.09-.47.57-.66.07-1.01.8-.95-.04-.18.7-.37.18-.14.31-.42-.64.03-2.58-.95.66-.67-1.7.16-.18.02-.85-.24-.5-.46-.04-.81-.61-1 .54-.48.68-1.05-.21-.32-.81-.29-.2-1.68.85-.32-.27-.02.37-.61.02-.17.42-.29-.04-.2.25-.4.2-.58.82-.67.13-.83-1.02-.06-.29.28-.45-.3-1.2-.3-.44-1.81.32-2.62-.64-1.34-.28-1.19.03-.25-2.67.23-.82-.07-.52-.48-.39-1.16-.36-.88.37-2.24 1.22-1.84-.03-1.8.39-2.46-.9.23-1.41.43.1 2.13-.6.65-.41.35-.92.02-1.1-.5-.3-.46.06-2.07-2.2-.32-.47-.52-.12-.2-.23-1.25-.9-.37-.58-.88-.24-2.1.5-.24.15-.78-.19-.09-.78-.02-.3 1.36-1.07.42-.68-.19-.76.9-1.08 1.28-.53.01-.29.41-.28.48.04.1-.34 1.16.35.73-.13.32.66 1.2.71 2.18 1.17 1.49-.24.42-.26 1.45.2v1.26l.85-.06.26-.29.27.09.47-.2.67-.64.95-.07.12-.32.2-.05 2.03.2.6-.29.04-.43.31-.44.81-.86v-.43l.92-.13-.05-.34.52-.42.03-.24.32-.09.43-1.32-.24-.42.32-.64 1.01-.6-.43-1.4-.25-.03-.04-.36-.14-.35-.64-.5-.06-1.1 1-1.46.68-.22.1-.46.47.2.36-.3 2.06-.98 4.15-1.25 1.14.23 1.04.98" clip-path="url(#a)"/><path fill="#fff7eb" d="m252.11 100.31.42.05 2.1-.31.72.18.62-.19 1.6.1.9.36 3.33.6-.08.8-.2 2.2.36.81-.17.64.24 1.43-.75 1.64-.6.62-.26.03-.2.32-1.2.29-1.21.94 1.43 1.04.94.4.56-.25.4.33 1.67-1.06.53-.07.5.33.41-.02h.18l.63.85.48.2.51 1.08v.88l.4.75.16.6-.36.42.1.52-.24.54.23.41-.25 1.42.19.98-.71.39-.04 1.11.31.66.75.4.28.97-.24.35.1.24-.2.67-.45.33-.27.6-1.04.3-.68 1.24-.4.33-.69 1.02-1.25.76-.86-.3-1.92-.08.3.68-.8.31-.48 1.08-.94.3-.12.26-1.24.75-.51-.32-.1-.75-.7-.9.02-.42-1.63-.46-.67.05-.34.04-.61.84-.59.07-.15 1.26.14.61-.66.59-.3.7.05.42-.35.23-.79 1.84-.86.71-4.03.78-.26-.1-.3.3-1.77.71-1.02-.31-.03-1.38-.64.13-.66-.48-.77-.08-.9.2-.08-.36.32-.42.13-1.08-.58-.65-.02-.57-.24-.24 2-1 .94-1.24.74.08 1.16-.57 1.1-.84.74-.26.1-1.45-.31-1.47-.36-.09-.41-.54-.67-1.61.64-.23.4-.37 1.15-.14.1-.22-.4-.42-.3-.78.53-1.06.15-.9.53-.4-1.12-.36-.6-.72-.25.2-1.07-1.74.7-.27.04-.34-.3.11-.71-1.25-.82-.55-.2-.6-.34-.16-.07-.95-.76-.44-.45-.02-.16-.3.84-.4-.23-.55.07-.67.98-.26.52.23 1.4-.74.33-.47.43-.09.22-1.31.8-1.27-.03-.51.32-.14.09-.5.72-.48-1.62-.62-.03-.32.43-.69.9-.42-.14-.49.35-.8-.67-.78.31-.98-.15-.73.53-.42 1.4-2.52 1.01-1.26.1-.11.21.23 3.6 3.9.99.88" clip-path="url(#a)"/><path fill="#fdb982" d="m71.52 143.93.24.22.2-.21.6.42-.14 1.4-.55.68v.4l-.53.62-.65.38-.3-.53.03-.36-.58-.36-.24-.4.31-.56.5-.07.73-.83.38-.8m6.67-1.3.12.18.36-.23.31.34.72.5-.1.22.5.47-1.23 1.93-.07.46.2.07-.5.44-1.2-.33-.63-.58-.8-.33-.86.25-.48.6-.4.11-1.04.17-.36-.28.41-.89.23-.07.12.27.47-.35.16.19.47-.2.35-.16-.11-.23 1.21-1.54-.1-.22 1.2-1.09.35-.67-.2-.01.21-.48.88 1.02-.2.44" clip-path="url(#a)"/><path fill="#fdb982" d="m80.86 128.35.94.85.14-.1.12.2.31-.24.8 1.07-.75.5-.16-.28-1.38.51.34.41 1.3-.51 1.37 1.38-.85.77-.66.94-.46 1.3.45 1.74-.47.7.2.18.3.2.66-.83.3.21.34-.05.3.41-.43.74-.39.27-.36 1.11-.05.41-.39.42-.21-.26.12-.16-.26.01-.12.2h-.46l.06.17-.39.13-.06.2-.47-.12-.68.34-1.24-.66-.16-.24.17-.14-.38-.42-.6.25-.24.57-.42.26-.25-.24-.53.7-.45-.26-.17.44-.52-.52-.44-.2-.68-.73-.51.33-1.22-1.15-.52.36.24-.51.65-.62-.25-.41-.41.3-.16-.24-.75-.72-1.97-2.14 2.97-2.9 6.76-6.54 2.03 2.61m27.02-5.32-.02.42-.31-.02-.95.6-.15-.39.06-.6.93-.44-.09-.23.16-.13.4.21-.03.58" clip-path="url(#a)"/><path fill="#fdb982" d="m106.16 114.54.19.16.14-.15.48.99.2-.11.07.28-.25.33.9.82.04.21-.46.45-.66.57.1.16-.62.38-.03.5-.53-.09-.07.45h-.89l.14.34.74.03.35.46-.25.87.14.06.01.61-.47.56.62.81-.04.49v.21l-.38.07-.07.33.2 1.44-1.57 1.03.58.15.37-.39.64-.04.34.11.39.49.44-.59.58-.16.17.54.34.15.5.01.06-.24 1 .2 1.91 1 .72-.5 1.36.16 1.43-.17 1.88.57.32.33-.04 1.56.35.29.11.82-.6 1.02-1.03.53-.3-.34-.68.08-.22-.35.61-.33-.55-.38-.5.05-.07-.23-.3.22-.04.58-.78.4.47.64 1.14.67.65.83-.2.55-.68.43.13.52-.2.36.16.21-.74.68-.45 1.53-.3.28.08.56-.1.36.2.32-1.08 1.16.37.84.43.25.3 1.53-.64 1.54.17 1.54.73.73 1.5.05 1.73.5.02.8-.3.75 1.15.1.22-.15.47.77h.66l.26.28-.34.28.14.48-.38.4.22.6-.33.62-.24 1.64.58-.06-1.34 1.33-.24.58-.08-.87-.45-.22.05-.32-.4-.42h-1.77l.6 1.54-.59.52-.7.07-.1 1.7.45.38.04.28-.27 1.8.46 1-.65.3-.35.9-.73.24-1.34-.63-1.08 1.27-.65 1.18-1.1.86-.7.24-1.07.7-1.26 1.72-.51-1.02-.68-.57-.74.9-.92.7-.95.62-.84-.14-.29.21-.7 2.13-.74.57-.17.45-1.1.52-.78.9-.19-.18-.72.18-.87-.21-.41.27-.53-.3-.37.2-2.62 2.36-.6.84-.27 1.36-1.89 1.01-.7.1.65-1.23-.2-.48-.77-.72-.15-1.62.2-.18-.53-.72-.03-.97-.89-.85-.91-.64-1.32.1-.27-.35-.27-.01-.17-.35-.78-.3-.22-.3-.84-.02-.41.65.12-1.49-1.13.8-.14.1-1.2 1.36-.28.8-.36.07-.81-.05-.19-.35-.27.01-.41-.4-.32-.57-.2-.84-.45.02-.52-.5-.56-1 .11-.1 1.04-1.99.17.09-.19.53.58.06 1.76-.44.13.5.23.11-.08.52.22.1.42-1.14.14-.15 1.55-1.86.27.08.16-.23.7-.22-.28-.46.23-.52-.3-.1-.77.34-.28.65-.4-.6-.4.26-.2-.53-.5-.89-1-.55-.1.11-.35-.27-.34.12-.63.81-.48-.2-.39-.04-.25-.72-.5-.22-.2.57.1.27-.63.04-.44.45-.33-.13.32-.96.17-1-.24-.89.28-.09.13-2.44-.1-.67-.42-.62.52-1.32-.37-.53.97-.13.27.34.3-.08-.09-.13.84-1.27.27.08.17-.31.39-.04.44.2-.15.24.9.38.46-.5.43.18.25-.28.02-.26-.3-.2.58-1-.56-.34-.15-.53.2-.03.1-.38.15-.14.36.28.63-.77.2.01.34-.52.13.05.3-.67-.08-.31.44-.68.51-.66.9-.65.09.21.26-.44.14-.2.95-1.03.11-.08.03-.53.41-.82-.31-.51-.56-.53-.76.33-.29-.36-.17.12-.22-.17-.1.17-.19-.5.49-.6.44.31.7-.85.51-.46-.33-.12.15-.25-.12-.07.57-.72.54-.34.35.2.67-.86-.17-.02-.03-.35.84-1.06-.7-.99.12-.11-.22-.31.4-.38-.24-.23.55-.9.49.43 1.05.25.57-.97v-.31l-.5-.19.08-.27-.33-.3.25-.04.2-.38-.32-.36-.25.1-.3-.5.23-.9-.27-.3.24-.66.7-.82-.22-.33-.98-1.27-.6.46-.3-.1-.33.32.93 1.64-.38.23-.4-.72-.21.07-.26-.53-.19.1-.04-.4-.73-.7-.25-.63-.2.08-.23-.4-.57-.03-.16-.3.46-.5-.6-.66-2.04-2.3 2.5-3.2 2.63 2.91.83.8.49-.29.63.4.1.2-.43.53.2.18-.26.3.23.18 2 2.16-1.16 1.25.38.43.64.13.44-.47.18.02.06-.41.41.52.27-.19.81.5-.43.86.77.64-.5.37.06.22-.32.3.15.57.1-.1.33.36.17-.3.27.15.57-.89.3-.2.67-1.23.33-.19.31-.55-.11-.34-.36-.22.18-.05-.06-.21-.35.1.02-.46 1.4-1.2h-.4v-.15l.68-.07.03.37.55.12 1.03-.97-.04-.14-.46.18-.49-.4.15-.37-.24-.13-.46-.62-1.92-2.7-.15-.23.27-.44-.13-1.07-.26-.4.25-.07-.12-1.1.22-.11.18-.56-.89-.68 3.28.1 3.51-.83.67-.17.56-.15.54-.15.83-.44.61-.31.66-.36.75-.35-.03-.2.27.03.4-.53.43.27.21-.33m-6.15 10.06-.65.23-.11-.18-.82.36-.13.6.44.58-.01.36.07.22.27.04.43-.56.81-.37-.3-1.28" clip-path="url(#a)"/><path fill="#fff2e1" d="m290.84 52.99.19 4.91.24.64.96.8.55.63.9 2.02.48.24.21-.1.29-.9.34.1.85 1.37 2.52.37.4.33-.11.41-.57.59-.51.86.52 2.16.05 1.36.22.03.45.78 1.06.72-.01 1.13-.25.47-.62.73-1.01.42h-1.11l-.72.27-.14-.12-.38.42-1.5 1.8-.34 1.07-.63 2.3-.53.74-1.25.8-.51.45-1.24 2.53-1 .88-.08.14-.03.78-.71 2.13-.79 1.41-.6 1.04-.52 1.85-.46.97-.21.92-.11 1.42.73 2.41.65 1.12.43.83.47 2.08.16.78.25 1.73-.64 1.7-2.94 2.24-.21.53.3 1.09.12.28.6 1.03.51.78 1.2 1.76.26.87.52.98 2.28 2.94-.36.27-1.38.2-.5.48.09 1.46-1.1.25-.48 1-.18.52-.26.13.07.17-.57.26-.06.59-.62 1.13.06.56.74.39-.45.47-.54.2-.64.76.03.34.16.62-.23.62-.85-.03-.12.22-.01.87-.43.46-1.24-1.35-1.34-.67-1.44-.27-1.27-.56-1.6.04-1.13-.27-.3.16-.36-.43-1.32.16-.94-.6-1.3-.14-.54.23-.88-.23-.69.39-.8-.55-.16-.55-.43-.35.2-.67-.1-.24.24-.35-.28-.96-.75-.4-.3-.67.03-1.11.7-.4-.18-.97.25-1.42-.23-.41.23-.54-.1-.52.37-.41-.16-.61-.4-.75v-.88l-.5-1.08-.5-.2-.62-.85h-.18l-.42.02-.49-.33-.53.07-1.66 1.06-.41-.33-.56.25-.94-.4-1.43-1.04 1.21-.94 1.2-.29.2-.32.25-.03.61-.62.75-1.64-.24-1.43.17-.64-.37-.8.21-2.21.08-.8-3.33-.6-.9-.35-1.6-.1-.62.18-.72-.18-2.1.31-.42-.05-.98-.87-3.6-3.91-.22-.23-.1.11-.65-.4.1-.12-.2-.15-1-.47-.66.12-.3.36-.64-.09-.02-.45-.32-1.81.57.11.29-1.5.44-.17-.25-.51-.41-.06-1.03.13-.91-.2-7.92 1.2-1.54-.46-1.04-.98-.95-2.14.06-.38.22.04.26-.54.52-.14 1.36-.4.17.12.31.01.46.39h.5v-.2l.54-.26.31.76.43.1.72-.21.28-.26-.02-.46.92-.15 1.81-.45.02.28.26-.06 1.9-.66.65-1-.28-.33.5-.34.08-.49-.02-.28-.17-.02-.13.28-.2-.04-.06-.5-.55-.48 1.2-.43.66-1.42 1.37-.29.82-1.42-.6-.88.14-1.23-.47-.24.08-.89-.18-.57-.38-.22-.5.06-.77-2.1-.58-.43.19-.3.7-.35.2-.56.6.18.24-.74h.27l.25-.95-.18-.56.35-.72.41-.19.53.13.14-.31.14-1.07-.35-.76.5-.02.4-.59.84-.02.15.2.53-.37.26-.56.46.55.45-.37.25.29-.2.24.29-.14.02-.56.56.09.17-.41.57.12h.32l-.14-.27.45-.1-.63-.25-.44-.5-.46-.09-1.24-.45-.13-.3.21-.13.13-.63-1.64-.69.2-.28-.25-.05v-.45l-.4-.15.27-.41.3-.1.1-.47.42-.07.22.21.48-.2.15.16 1.09-.84.06-.01 1.03.99.32-.15-.08-.2.3-.24.15.2 1.36-.5.22.35-.07.33.52.78.66-.36 1.1.13.25.56h.17l.52-.21-.06-.26.4-.1.63-.14.39.15 1.11-.4.52-1-.16-.38.42-.47.18.31.07-.3.22.09-.22.55.36.43h.28l.03-.28.26-.04.16.7.5-.18.3.19v.27l.28-.18.16.18.86-.04-.25.3v.47l.26.07-.07.23.34.12.4-.55.49-.09.63.15-.03.25h.54l.45.1.18.49.35.12.94.01 1.18-.54.22-.42 1.36.67 1.77-1.56-.3-1.09-.24-.05-.43.36.02-.44-.17-.1.2-.48h.45l.16-.26-1.08-.79-.05.38-.26.03-.12.31-.2-.03-.3.34-.4-.1-.45.16-.72-.2-.21-.45.51-.16.4.34-.07-.44.24-.06.19-.45-.2-.26.88-.23.2-.2.4.04.11-.27.8.5-.05-.63.35-.15-.1-.17.3-.13.75.35.08-.15.58.1.2-.35.06.55-.16.3.4.52 1.02.04-.05.38-.58.27-.2.28.2.05-.42.48-.3-.03-.14.7.31-.29 1.17.38.13-.43.5.29.8.22-.1.6-.4.16.14.52-.1.13-.1.3.42-.13.63-.05.35.5.3.06.19.57.4.15.22-.33.24-.48-.11-.42.25-.14.17-.75h.28l.48-.47.44.1.29-.54.85-.61.88-.54 4.71-4.4 4.08.9m-8.64 4.72.05 1 .31.07-.05.19 1 .23-.11.41.95-.57.58-.5-.9-.94-1.15-.62-.68.73m1.5 7.23-1.28.8-.62-.33-.71-.06-.2.58.2.97-.38.38.23.43-.2.29-.14-.14-.06.26.16.1-.33.28-1.01.2-.3.33-.92.22-.48-.09-.44-.53-1.18-.19-1.03.62-.3-.14-1.11.43-1.1-.08-.46.31-1.29.3-.74-.2-1.16-.14-.03-.17-.57-.17-.3.2-.25-.22-.5.28-.26-.26-.32.04-1.13.52-.31-.02-.03-.2-.16.16.13 1.02-.76.03-.29.32.21 1.31-.65.6v.36l-.4.36-1.3-.06.32 1.03.65-.27.07-.2.2.19-.68.95.55.62.06.35 1.2-.45.25.08.68 1.2-1.86 1.28.25.15.38 1.36-.05.94.58.77-.6.97-.69.5-.15.42.84.65 1.27.6 1.36-.02.46.29 1.38-.77.46.38-.25.18.6-.06.35.52.69.43.58-.27.32.1.02.5 1.14.9.65-.32.89.01.56.53 1.08.14.53.4.91.7 1.6-.42.97-1.01.8-.06 1.01-.44 1.11-1.1.74-.42 1.86-2.27.23-.54.12-1.57.54-.45-.27-.8.45-.67.35-2.14.01-1.15-.04-.8-.28-.86.16-.73-.16-.15.48-.57-.16-.08-.04-1.03.41-1.02.1-.2 2.65-.63.21.2-.17.38.35.22.43-.07.18-.33.92-.5.74-.36-.15-.18.67-.37v-.1l1.72-.51-1.22-.82-.09-.48 1.5-.7.84-.64.65-.22.29-.1v-.5l-1.46-.6-1.13-.8-.09-.26-.55.1.03-.16-.99-.43-1.15.03-.31-.24-.41.1-.56-.01.1-.35-.29-.2-.85.1-.24.34-.26.57.38.65-.38.06-.2.27-1.2.26-1.32.88-1.87.4" clip-path="url(#a)"/><path fill="#fdca94" d="m202.2 167.9.18.34.35-.07.45.43 1 .4.55-.25.66.82.34.1.04.3-.43.2-.98 1.4-.67.38-.7 1.42-.89-.18-.95.5-.41-.23-.26.22-.79.05-.18-.22-.5-.06.18 1.12-.69 1.08.51.89-.55.27.03.43-.27.23.19.88-.45.16-.3-.27-.65.14-.88.57-.26.61-2.13 1.83-.82.24-.6-.25-.67.97v.36l-.78.71 1.15.65.24.05.24-.23.48.58.12.57-.25.48.36.4-.3.28-.16.8-1.01.34-.8.56-.44.64-.88-.38-.73.33-.24.37.34.43.06.6-.47.37.24.3-.79-.05-.22.66-1.16.04-.9.68.09.19-.27.3.27.44-.82.77.02.4-.29.42.06.38-.52.37-.52.44-.46-.23-1.1.79-1.38.17-1.14-.65-.46-.05-.28.02-.69.81-.63.33-.57 1.24-.64.17-.39.68-1.15.82.01.52-.44.17.46.73 1.19.21.02.34h.67l.23 1.23.18.32h.4l.3.73 1.15.4.37 1.68.62 1 .15 1.35.96 1.03-.03.6-.52.33-.68 1.33-.01.64.44 1.08-.86 1.24-1.51.18-.77.56-.13 1.49-.44.67-.66.07-.21.3-1.21.34-1-.06-1.16.54-.41-.12-.48.27-.69-.1-.03.64-.34.65-.04 1-.52.71-.07.62.23.2-.05.53.9 2.18-1.04.59-.8.89.44.75-.53.67.2.34-.07.45-.9-.03-.56 1.42-.38.46-.94-.4-1.56.38-.62-.18-1.32.2-1.89-.12-1.17 2.1-1.3.56.35 1.13-.54.7.32.4-.14.61-.54.2-.14 1.27.67 1.07-.31.76-.53.1-.22.33-.4-.48-1.72-.1-.41-.37-.87-.23-1.65 1.1-.43-.3-.25-.57-1.12-.7-.58-.7-1.69-.44-.15.7-.7.76-.15.5-1.15.02-.32-.46-.3-.05-.1-.54-.31-.22.19-1.54-.8-.67-.94-.1-.63-.33-.21-.84-.7-1.03-.84-.3-1.41.75-1.57-.26-.76.34-1.67-.13-.55-.44-.25-1.34-.3-.18-1 .22-.94-.1-.35.32-.33.87.41 1.5-.3.71-.35.23-.23-.22-.6.04-.8-.67-.8.5-.66-.5-.45.77-.47-.02-.75.4-.51.6.27 1.2-.26.3-1.02-.17-.22.4-.89.04-.8 1.33-.58.55-1.28.77-.42-.04-.3-.28-.3.35-.05.41-.85.89-.32.07-1.28-.87-.38.09-.38-.45v-.4l-.46-.1-.5-.42-1.06.54-.55.04-.45-.17-.15-.56-1.15-.08-.55-.52-.73.7-.67 1.73-.42.09-1.15 1.34-.3-.03-.28-.54-.7.36-.97-.23-.2.26-.73.11-.06.57-.76.42-.2.43-.27.11-.19.6.25.83-.33.32-.48.19-.92-.56-.29.08-1.06-1 .19-.6-.83-.29-1.44.75-.3.69-1.07.87-1.32-.01-.7-1.47.24-.44-1.2-1.09-.28-.56.01-.57-.98-.55.02-1.08-.3-.47-.59-.25-.65-.79-.24-.98-.48-.86.22-.73-.07-1.1-1.52-.67-.73-1.06.13-.45.8-.34.1-.5-.52-.7-.27-.08-.12-1.14-.39-.45-.46.24-1.18-.7-.3-1.73-.78-.64-.35-.62-.3.08-1.03-2.44-.53.09-.56-.48.14-1.03-.35-.3-.38.29-.36-.07-1.17 1.62-1.12.3-.32.64-.6-.23-.58-.37-.2-.9.6-1.6.84-.51-.24-.55.27-.73-.7-1.17.98-1.5-.17-.54.5-1.28-.72-.16-.64.29-.48-.33-1.95-.09-.65-.28-.13-.35-1.75.11-.32.2-.57-.78-.55.08-.24-.16-.6-2.01.16-1.03 1.04-1.1.14-.58.4-.41-.43-1.73-.27-.77.52-1.24.9-1.1-.06-.75.04-.25.72-.24.52-.74.24-.88 1.18-.73-.05-.48.43-.8-.07-.92.45-.78-.46-1.13-.37-.23-.56.28-1-1.13h-.3l-.19-.34.15-.38-.84-1.07-1-.6-.48.08-.33-1.49-.95-.01-.4-1.32-.36-.33-.34-.91.1-.7.72-.6.87-.08.94-1.1.17-.74-.33-.43.27-.83 1.25-3.8 2.98 3.78 1.96 2.05.23 1.27-.39 1.08 1.12 1.79.41.23 1.42-.03.81.96.18.57.02.13.32 2.95 1.05.85.77.8.2.5.21 1.25.47.6.7.77.6.58.17.84 1.05 1.67.06.5.1.42.4.21.29 1.74.76.68.8 1.44 3.01-1.62.32.17 1.04-.23.6-.65.96-.53 1.12-1.34-.06-.66.23-.88h.45l.77-.12.86-.75.32-.96.52-.13.79-.83.48-.85.51-.02.32-.23-.17-1.4.67-.33-.08-.3.24-.1-.6-.67-.01-1.02.9-1.03 1.64-1.88.96.3 1.55-.46.7-.88-.16-.7.17-1.6 2.23-1.03.33.16.33-.1.9-.98.19.56-.38 2.11.57.93 1.75-.31.81-.47.45.05.44-.35.28-.4.43-.1.8-.8.32-.08 1.37-1.3.15.26 1.22-.68.83-.05.82-.64.4.38 1.11.16.38.6.13-.2.5-.02.28-.63.45-.18.33.42.26 1.25.6-.14.38.24.23-.07.4-.62 1.5.16.95-.34.18-.73 1.15-.6-.67-.58-.48-.1-.95-.64.42-1.07 1.64-.44.6.13 1.16-.53.5-.02.22.4.62.27.46-.46-.13-.7.63-.33.3-.48-.04-.94.86-.2.43-.76 5 2.36.27-.02.95 1 .57.24.93-.85.97-.32.61-.5 1.88-1.32.8-.4.15-.4 1.37-1.29 2.1-.97.25-.43 1.26-.87 2.62-.08 1.12-.56.35.12.78-.37.05-.2.41.05.33-.5.63-.05.02-.4.73-.35.14-.59.58-.51.91-.04.87-.59.25.04.4-1.3-.31-.33-.48-1.4.39-.26.15-.38.79-.38h.5l.53-.92.36-.26.3.03 1.15-.6 1.15.1.98.62.87.13.6.52.1-.22 1.03-.27.74.45.66.03.55.38 1.05.19.93 1.06 1.9.63 1.93.05v.84l.5.4.3-.03 1.23-.41.41.1 1.6-.4 1.22.05 1.33-.33.5-.45 1.49-.57.32-.54 1.2-.29.8-.8.33-.76 1.54-.23 1.09-.87.1-.35.7-.7.3-.59-.29-.37.22-.73-.14-1 .69-1.47-.17-1.22.34-1 .6-.1.82-1.18.3-.17.35-.94.9.12.61.09.3.5-.25 1.4.28.97-.39 1.89-.28.66-.45.44.17.52-.32 1.22.31.6v.42l.53.7.3 1.16.23.13.08 1.02.35.88.3.06" clip-path="url(#a)"/><path fill="#fff1dd" d="m143.9 96.45.17.24.4.1-.28.39-.16-.09-.31.65-.67-.21-.45.13-.12-.12.4-.97.15.09.25-.45.32-.06-.07.15.37.15m-21.35-32.47.31.35 1-.34.84.99.5.96-.01.42-.59 1.28-.72.2-.85-.2-.54.4H122l-3.04-.35.3-1.56.25-.23-.14-.26 1.53-.4.2-.01v-.27l.29-.27.58-.21.57-.5m19.59-4.5 2.35.56.81 1.3-.8.82-.1.75-.61.32-.47.57-.18 1.05.27.32-.1.86-.4 1.36-.4.23-.88.57-2.42-.04.35 2.76-.3.09-.01.3.19.24.48.01.02.25.18 1.28 3.41-.46 1-.12 2.18.4.08.22.4 1.05 1.37 1.54 1.17.18.22.14v.31l1.03-.08.46.22.43-.22.33-1.88.35-.6.32-.14 1.26-.1.9-.49.48-.76 1.81-.91.46.07.6-.36.21.11.05-.52-.6-.38-.21-.47.48-.25.34-.47.3.06-.01-.56.41-.13.97.74.23-.19.47.46 1.14-.41.99-.7-.14-.42.44-.27.62-.25.52.08-.08-.19.22-.2.38-.34-.92-1.13.15-.12-.4-1.2.06-.25.8-.68-.07-.45.28-.04.02-.33.58-.54.47.4.2.63-.13.25.55.65.42 2.07-.12.65-.24-.64-1.57.66.9.35.63.67.59-.05.11.33 1.28.47.25 1.38.75.16.03-.23.49.02.07.28.27 1.16-.33 1.36-.2.41-.1.32-.31.09-.67.83.2.32-.08.5-.63.5.27.7-.5.53-.73.25-.5.48-.08-.2-.72.44.09.43-1 .22-1.2.34-.04-1.72-1.31-.05-.95-.1-.08-.16-.18-.14-.44-.36V76l-.26.02-.8 1.6-.08.52.21.32-.5.48-.54.6-.37-.04-.52-.04-.96.54-.88 1.94-.1.15-.66 1.66-.63.71-.39.16-.25.16-.84.45-.62-.33-.12-.41-.23-.01-1.32 1.35-.73-.58-.12-.7-.75.09-.62.99-.5-.1-.51.2-.46-.32-.44.1-.62-.83v-.38l-.77-.84-.23.33-.88-1.44-.97-.44-.29-.4-.63.55-1.29.22-.69.49-.25.09-2.8.13-.48.06-2.11.48.34.48.72.68.07.3.2 1.48.02.66.39.32.17-.07.16.43.23-.05.52.68.23.51.18-.01.15-.09.24.42.27-.21.11.19.25-.23.1.16.4-.27.25.44-.4.24.14.2.64.36-.2.47.2.42.06.13.16.37-.3.57 1.18.08.04.27.5.54.19-.12.23.47-.28.73.54.2-.35 1.23-.06.45h-1l-.56.67-.17.6.1.69-.56.25-.38-.53-.35.17-.33-.19-.74.1-.23-.16-.27-.24-.08.21-.78.22-1.2.16-.27.43-.38-.94.03-.41-.53-.59-.46.22-.3-.2-.06-.4-.47-.04-1.06.88-.48-.31-.29.08-.07-.22-.9.4-.2.1.12.16.59 1.13-.41.22-.09.46-.65.85-.2.82-.61.63-.5.17-.48.5-1.36.57-1.08.45.44 1.41.65.97-.67 1-.56.07-.39.39-.03-.14-.85.18-.2.01-.44-.81-.14-.86.13-.54.18-.06-.3-.72-.8.33-.29-.32-.42.3-.2.14-1.7.45-.05-.3-.59-.07-.22-1.2-.76-1.15.2-.12-.05-.61.2.08.4-.27.3.11.3-.31.26.73.4-.26.68.49.15-.09 1.78-.62.7.13.24-.13-.54-.27.2-.31-.04-.28-.32.24-.13-.29-.25.04-.37-.52.38-.33.01-.27 1.02-.34.03-.74.76-.6.39-.08 1.04.57.95-.45 1.01-.92-.2-.28.54-.5-.11-.17-.74-.25-.45.24-.16-.66-.13.1-.47-.54.34-.2-.2-.3.31-.29-.1-.38-1.42.3-.64-.11.04.53-.12.3-.5.22-.45-.54-.33.17-.08.3.06.62-1.02.53-.22.68-.45.36-.71-.09-.64.3-.6.07-.23-.2v-.43l.75-.13-.85-2.02-.5-.54-.55-.26-.17-.35-.89.27-.6-1.8h-.16l-.34-1.18 1.16-.4.5.14 1.18-.87 2.04-.9.75-.66.27.07.44-.3-.36-1.07.19-.27 1.27-.6.41-.34.44-.05 1.73-.27.82-1.5.57-.67.78-.29-.05-.15 1.57-.5 1.4-.22.44-.32.1-.56.61-.47.09-.88.03-.3.78-.69.26.1.56-.33.3-.52-.98-1.55-.28.03v-.2l-.35-.16-1-.25-.2-.32.36-.64-.15-.5-.45.05-.14-.34-.8-.29.18-.74-.42-.06-1.93.16-2.83-.01-.37-.3-1.07-.79-.32.25.07-.21.15-.69.38-.36-.2-1.34.23-.14.35.25.1-.37.27-.08.53.37.35-.25.56.26.44-.1.14 1.32.4.05.08.21.46.21.12.05.73.08.72-.58.51.11.92-1.42.19-.44-.38-.46-.01-.36 1.35-.25 2.9-.07-.2-.38-.51-.17-.25-.35.03-1.6.56-.03.21.2-.05.3.25.05-.14.18.45.2.57-.47.8.17.48-.18.6.01-.05-.56.08-.86.5-1.38-.04-.55.31-.12-.51-.5-1.13-.48.25-.45-.19-.04.18-.8-.13-.61-.02-.18.8.07 1 .51.92.2.3-.28.28.07.54-.26-.3-.18.32-.2-.47-.2.1-.32.2-.17 1-.09-.04.61.23.56.12.14m-12.39-1.52.53.22.99-.06.06.74.3-.01.02.7-.28.77-.31.03-.13.48.25 1.45-1.3.06-.43.24-1.08-.11-.83.27-1.72.66-.64.22-.74-1.4.8-1 .04-.27-.41-.3-.21.13-.32-.49-1.14-.45-.64.26.34-.95.73-1.1 1.56.98.6.04.68 1 1.32-.22.78-.8.35-.13v-.36l.7-.38-.17-.59.17-.07.13.44" clip-path="url(#a)"/><path fill="#fff1de" d="m289.93 61.6-.1.35h.55l.4-.1.32.25 1.15-.03.99.43-.03.16.55-.1.09.26 1.13.8 1.45.6v.5l-.28.1-.65.22-1.02.03-.93.31v-.17l-1.7.2-.2-.53-.24-.04-.57.57-.01.26.3.3.53.16.1-.12.38.35-.63.4.08.12 1.17.09-.12.6.3.05.04.19-.44.3.2.08v.1l-.66.37.15.18-.74.36-.92.5-1.02-1.33.7-.2.14.24.74-.09.2.38.4-.1.28-.13-.11-.66.37-.26-1.42-.34-.37-.58.05-.39-.5-.12-.11-.23-.64-.22-.12.68-.86.3-.24.2.28.76-.33.1.36.4.43-.02-1.74.95.12.57-.25.33-.1.2-.42 1.01.04 1.03.16.08-.48.57.16.15-.16.73.28.86.04.8-1.23-.33-.64.35-1.06.03-1.66-1.14-.53.04-.19-.42-.45-.75.06-.46-.67.32-.2-.2-.6.1-.74-.6-.1-.45-.63-.26-.25.28-.34.04-.02-.21-.56-.17.07-.59-.23-.12-.4.31-1.02-.11-.67.22.67.6.07.52-.2.22.66 1.5-1.07.4-.62.33.21.82-.23.03-.77.44-.36 1.16-1.38.66-.12.27-.03.23h.33l.27.53-.11.36.21.4-.26.4.15.44-.33.69.06.64.79.87 1.52 3.88h-.89l-.65.3-1.14-.89-.02-.5-.32-.1-.58.27-.69-.43-.34-.52-.61.06.25-.18-.46-.38-1.38.77-.46-.3-1.36.03-1.27-.6-.84-.65.15-.42.7-.5.59-.97-.58-.77.05-.94-.38-1.36-.25-.15 1.86-1.27-.68-1.2-.25-.1-1.2.46-.06-.35-.55-.62.68-.95-.2-.18-.07.2-.65.26-.32-1.03 1.3.06.4-.36v-.36l.65-.6-.2-1.3.28-.33.76-.03-.13-1.02.16-.16.03.2.3.02 1.14-.52.32-.04.26.26.5-.28.26.22.3-.2.56.17.03.17 1.16.14.74.2 1.3-.3.44-.31 1.1.08 1.13-.43.29.14 1.03-.62 1.18.19.44.53.48.09.92-.22.3-.33 1.01-.2.33-.29-.16-.09.06-.26.15.14.19-.29-.23-.43.38-.38-.2-.97.2-.58.71.06.62.34 1.27-.8 1.87-.41 1.32-.88 1.2-.26.2-.27.38-.06-.38-.65.26-.57.24-.33.85-.12.3.21" clip-path="url(#a)"/><path fill="#feeed7" d="m96.57 126.43.49.4.46-.17.04.14-1.03.97-.55-.12-.03-.37.44-.42-.17-.22.35-.2m3.43-1.84.31 1.28-.8.37-.44.56-.27-.04-.07-.22.01-.36-.44-.58.13-.6.82-.36.11.18.65-.23" clip-path="url(#a)"/><path fill="#feeed7" d="m133.35 78.24-.78.7-.03.29-.09.88-.62.47-.09.56-.43.32-1.4.21-1.58.5.05.16-.78.3-.57.66-.82 1.5-1.73.27-.44.05-.41.34-1.27.6-.2.27.37 1.07-.44.3-.27-.07-.75.65-2.04.9-1.18.88-.5-.14-1.16.4.34 1.17h.16l.6 1.81.89-.27.17.35.55.26.5.54.85 2.02-.76.13.01.44.23.2.6-.08.64-.3.71.1.45-.37.22-.68 1.02-.53-.06-.61.08-.3.33-.18.44.54.51-.22.12-.3-.04-.53.64.1 1.42-.29.1.38-.3.3.19.3-.34.19.47.53.13-.1.16.67.45-.24.74.25.11.17-.54.5.2.28-1.01.92-.95.45-1.04-.57-.39.08-.76.6-.03.74-1.02.34-.01.27-.38.33.37.52.25-.04.13.3.32-.25.04.28-.2.3.54.28-.23.13-.71-.13-1.78.62-.15.09-.68-.49-.4.26-.26-.73-.3.31-.3-.11-.4.27-.2-.08.04.6-.2.13.77 1.14.22 1.21.59.08.05.29 1.7-.45.2-.14.42-.3.29.32.8-.33.3.72-.18.06-.13.54.14.86.44.81.2-.01.85-.18.03.14.4-.4.55-.07.67-.99-.65-.97-.44-1.4 1.08-.46 1.36-.57.48-.5.5-.17.6-.63.2-.82.66-.85.09-.46.41-.22-.6-1.13-.1-.15.2-.1.89-.41.07.22.29-.08.48.3 1.06-.87.47.04.05.4.3.2.47-.22.53.59-.03.41.38.94.27-.43 1.2-.16.78-.22.08-.2.27.23.23.16.74-.1.33.2.35-.18.38.53.56-.25-.1-.7.17-.6.56-.67 1 .01.06-.45.35-1.22-.54-.2.28-.74-.23-.47-.2.12-.5-.54-.03-.27-1.17-.08.29-.57-.16-.37-.06-.13-.2-.42.2-.47-.64-.36-.13-.2.4-.24-.25-.44-.4.27-.11-.16-.25.23-.11-.2-.27.22-.24-.42-.15.09-.18.01-.23-.5-.52-.69-.23.05-.16-.43-.17.07-.4-.32v-.66l-.21-1.49-.07-.29-.72-.68-.34-.48 2.1-.48.49-.06 2.8-.13.25-.1.69-.48 1.29-.22.63-.56.29.4.97.45.88 1.44.23-.33.77.84v.38l.62.82.44-.09.46.32.5-.2.51.1.62-1 .75-.08.12.7.73.58 1.32-1.35.23.01.12.41.62.33.84-.45.22.13-.06.3.21.25-.13.67-.2.17.2.2-.14.5.99 1.35-.18.53.08.72.74.77.18.84.55 1 .28.23.05.78 1.15.98.43.83.17.42-.48.8-.07.98.47 1.15.66.77-.01.97-.26.05-.02.38-1.03.4.06.17-.44.38-.03.36h.25l-.2.57.52.27-.17.52.26.4-.21.42.44.24-.13.4.24.28.1.17-.26.74.15.07-.25.23.13.09-.14.84-.48.88.24.22-.6.98.14.77.51.66.53.03.25.9.6.3.19.93.45.47-.27.53.4.87 1.63-.56.6.7.85-.03.83-.13.35.3-.62 1.12.32 1.43-.66.48.16.96-1.08.81-.05 1.28-.2.28-.6.18-.05.56-.44.81-.58.23-.8-.25-1.93 1.1-.49 1.23 1.01.44.27.42-.27.66.15.2-.5.45-.19.7-1.13.5-.2.52.1 1.08.55.23.01.36.4.25-.17 1.48.19.46.05.4.52.77 3.57 1.96 1.92 1.7.33.61.16.64.09.32 1.05.72.48.82.85.38 1.04-.85 1.82-.77.83-.14 1.24.36.16-.1.46-.06.4.24.7-.25.45.23 1.2-.14.1.43.67.66.21.52.9.06.65.34 1.92 1.73.96-.46.7-.76.38.2 1.38-.7.52.27.93-.17 1.1.97.92-.09.42-.9 1.6.68.72 1.07.55-.08.62.21 2.55-1.94 1.35-1.24 2.12-.24.7-.58.67.25.73.84.43.1.25.7.08.7 1.43-1 .52.17.15.24 1.1-.2.76.25-.05.37.24.28-.2.9-.2.3-.4.08.32.75-.17 1.08.7.88-.17.34-.02 1.41.1.26.42.18-.14.74.24.79-.22 1-.88.37-.66-.17-.36.11-1.05-.15-.2-.37-1-.24-.18.97.06 1.17.33.61.47.26.17 1.56-.9-.12-.34.94-.3.17-.83 1.18-.6.1-.34 1 .17 1.22-.7 1.48.15.99-.22.73.3.37-.32.59-.7.7-.1.35-1.08.87-1.54.23-.34.76-.78.8-1.21.29-.32.54-1.5.57-.5.45-1.32.33-1.22-.05-1.6.4-.41-.1-1.23.41-.3.03-.5-.4v-.84l-1.93-.05-1.9-.63-.93-1.06-1.05-.2-.55-.37-.66-.03-.74-.45-1.03.27-.1.22-.6-.52-.87-.13-.98-.63-1.15-.1-1.14.6-.31-.02-.36.26-.53.92h-.5l-.79.38-.15.38-.39.25.48 1.41.32.32-.41 1.31-.25-.04-.87.6-.9.03-.59.51-.14.59-.73.35-.02.4-.63.06-.33.5-.41-.05-.05.19-.78.37-.35-.12-1.12.56-2.62.08-1.26.87-.26.43-2.1.97-1.36 1.3-.15.38-.8.4-1.88 1.34-.6.5-.98.31-.93.85-.57-.24-.95-1-.27.02-5-2.36-.43.76-.86.2.04.94-.3.48-.63.34.13.7-.46.45-.62-.27-.22-.4-.5.02-1.17.53-.6-.13-1.63.44-.42 1.07.95.64.48.1.67.58-1.15.6-.18.73-.96.34-1.5-.16-.39.62-.23.07-.38-.24-.6.14-.26-1.25-.33-.42-.45.18-.29.63-.49.02-.13.2-.38-.6-1.1-.16-.41-.38-.82.64-.83.05-1.22.68-.15-.27-1.37 1.3-.33.09-.8.8-.42.1-.28.4-.44.35-.45-.05-.81.47-1.75.31-.57-.93.38-2.11-.2-.56-.89.98-.33.1-.33-.16-2.23 1.03-.17 1.6.15.7-.69.88-1.55.46-.96-.3.12-2.23-.3-.96.58-.21.3-.36-.3-.36-.82.35-.7-1.38.08-.56-1.14-.02.07-.55 1.04-2.2-.06-.62.22-.9-1.33-2.02.16-.8.56-.02.23.2 1.38-.34.26-.44.01-.66.51-.27-.43-.36.27-.38.04-.67-.46-1.3-.09-1.06.96-.13-.04-.57-.24-.23.54-.13.39-.63.34-1.86-.22-2.36-.68-.95-.02-.86.69-.24 1.1-.86.65-1.18 1.08-1.27 1.34.63.73-.25.35-.9.65-.29-.46-1 .27-1.8-.04-.28-.45-.37.1-1.71.7-.07.59-.52-.6-1.53h1.77l.4.4-.05.33.45.22.08.87.24-.58 1.34-1.33-.58.06.24-1.64.33-.61-.22-.61.38-.4-.14-.48.34-.28-.26-.29h-.66l-.47-.76-.22.15-1.15-.1.3-.75-.02-.8-1.73-.5-1.5-.05-.73-.73-.17-1.54.63-1.54-.29-1.53-.43-.25-.37-.84 1.08-1.16-.2-.32.1-.36-.07-.56.3-.28.44-1.53.74-.68-.16-.21.2-.36-.13-.52.68-.43.2-.55-.65-.83-1.14-.67-.47-.63.78-.41.05-.58.29-.22.08.23.49-.05.55.38-.61.33.22.35.68-.08.3.34 1.02-.53.61-1.02-.11-.82-.35-.3.04-1.55-.32-.33-1.88-.57-1.43.17-1.36-.17-.72.51-1.9-1-1-.2-.08.24-.49-.01-.34-.15-.17-.54-.58.16-.44.59-.4-.49-.33-.1-.64.03-.37.39-.58-.15 1.56-1.03-.19-1.44.07-.33.38-.07v-.21l.04-.49-.62-.81.47-.56v-.6l-.15-.07.25-.87-.35-.46-.74-.03-.14-.34h.9l.06-.45.53.09.03-.5.62-.38-.1-.16.66-.57.46-.45-.05-.2-.89-.83.25-.33-.07-.28-.2.1-.48-.98-.14.15-.19-.16-.21.33-.42-.27-.41.53-.27-.03.03.2-.75.35-.66.36-.61.3-.83.45-.54.15-.56.15-.67.17-3.5.83-3.29-.1-.93-.32-1.14-2.97.47-.8.18-.89-.04-.4v-.78l.3-.45 1.3-1.01.96-.17.89-.74.74-.7.16-.18-.65-.95.02-.68-.28-.33.8-.65-.24-.75-.66-.94-1.46-.4-1.3-1.06-.94.6-.42-.97 1.33-1.39-.2-.26-.6-.08-.36.35H90l-.89.6-.97.23-2.87.54-.66.3-.23.11-.52-.44-.92.86-4.03 2.3.3-1.96.81-.72.41-1.78.2-.84-2.15-3.96.86-.96.57 2.26.33.44 1.76-.78.77-.72 1.75-1.34.14-.59.11-.5.32-.09.53-.23.32.77.41-.15.71.08.52.73.22.1.37-.23.83-1.51.11-.47 1.55-.17.57-.1.18-.25.62-1.14.11-.23.74-1.4.24-.62.88-.4-.12-1.12.08-.15 1.68-.7.02.52.44-.23.15.2.13.24-.24.2.21.33h.62l.47-.68.87.12 1.25-.37.85.23.06-.18.77-.2.42-.14-.53-.72.19-.2-.7-.02.03-.45.46-.3-.26-.35.25-.44 1.57-.64-.08-.77.2-.2-.07-.34-.33-.04-.04-.24.35-.28-.45-.25.87-.12 2.47-.16.26.1-.23.32.32.36.34-.14 1.4.2.82.33 1.22-.03.33-.18 1.39.31 2.15-.4.75-.28.45-.6.71-.46.44-.67.85.02.12-.01 2.28-1.1 1.02.2 1.6-.01.1.38.51.14.14.23 1.47-.2.18-.03 1.37.24 1.15-.03 1.26.56.75-.15 2.39-1.49 2.22-.7m-26.9 45.4.15.39.95-.6.31.02.02-.42.03-.58-.4-.2-.16.12.1.23-.94.43-.06.61m37.27-25.9.3-.65.17.09.29-.4-.41-.09-.17-.24-.37-.15.07-.15-.32.06-.25.45-.14-.1-.4.98.1.12.46-.13.67.21" clip-path="url(#a)"/><path fill="#feeed7" d="m133.35 78.24-2.1.15-.31-.18.53-1.35 1.21-.75.18-.5.34.16.01.2.28-.03.98 1.55-.3.52-.56.34-.26-.1" clip-path="url(#a)"/><path fill="#7f0000" d="m24.08 196.51 2.22 1.14 1.64-3.16 1.72.84.59.35-.13.15.1.66.27.32-.05.44-.55.32-.5.38-.01.6.96 1.64.86.86-.06.36.5.46 1.43-.78-.05-.2.85-.96.13.1-.1.9.45.12.74-.15-.14.13-.2.44.26.14.07.68-1.24 2.2-.21.17-1.21.95-.86.21-1.32.97-.3-.18-.12.2-.73-.18-.32.32-.49.25-.76.87-.58.19-.66.97-.74.27-.23.37.21 1.38-1.05.93-1.83.76-.43.64-.14.13-.26-.25-.48.67-.7.08-.43-.25-1.74-.15-.57-.89-1.36.27-1.78-.22-.26.44-.07.74-.38-.01-.57.73-.3-.53-.6-.16-.71-.26-.9.12-.78-.29-.88.27-.19.72-.31.37-.88.35-.34-.08-.28.27-.1-.48.78-.58-.1-.87.68-1.32.23-.47.44-1.43.24-.1.27.33.31-.7-.05-.3.28-.4-.3-.52-2.18-1.1.04-.12.69-.52-.3-.47.41-.94.31-.24 1.17.16-.14-.8h.39l.3.27.53-.39.25-.65.27.02-.05-.19.3-.14.67-.16.67-.6.69.61.3.2 1.17-1.59.18-.05.49.53 1.46-.7 1.07 1.1.36-.36.21.12 1.15-1.26-.28-1.21-.15-.28.16-.14-.33-.1-.44-.53.24-.26-.77-.68.07-.64-.17-.1.85-1.07.45-.02.17-.33-.16-1.21.06-.54.36-.56.1-.03.7 1.01.49.39 1 .71 1.34.56m.42-6.54.68.6-.22.26-.54-.35-.25.72-.33-.24.21-.44.45-.55m1.73-1.04.33.63.4-.04.46.25 2.24 1.07-.76 1.63-1.94-1.04-1.1-.62.14-.56-.68-.08-1.06-.62-.13-.41.4-.2-.14-.26.46-.25.58.5h.8" clip-path="url(#a)"/><path fill="#fff6e9" d="m284.35 59.03-.95.57.12-.4-1-.24.04-.2-.31-.06-.05-1 .68-.73 1.15.62.9.93-.58.51m-60.99-23.3.52.27.75-.13.8-.23 2.25.35 2.3 1.52.78.1.24-.07.47-.23.36.17.6-.13 1.57.75.4.8 1 .44-.73.84.46.33.52.11.42-.65.3-.11.44.24.19-.08h.6l1.12.78 3.45-.98 1.88-1 1.38-1.1 3.14-1.38 2.73.26 1.25.62h1.77l.9.44.89.77 1.63.48.34-.04.41-.34.78.18.42.64.58.66.39-.12.03.2.5-.21.4-.18 2.17.27 3.29-.42 10.88 4.42 7.94 7.92.9.2-4.72 4.39-.88.54-.85.6-.29.55-.44-.1-.48.48-.28-.01-.17.75-.25.14.11.42-.24.48-.21.33-.41-.15-.19-.57-.3-.06-.35-.5-.63.05-.42.13.1-.3.1-.13-.14-.52.4-.16.1-.6-.8-.22-.5-.3-.13.44-1.17-.38-.3.3.14-.71.3.03.4-.48-.19-.05.2-.28.58-.27.05-.38-1.02-.04-.4-.52.16-.3-.06-.55-.2.36-.58-.1-.08.14-.75-.35-.3.13.1.17-.35.15.06.63-.8-.5-.11.27-.4-.04-.21.2-.89.23.21.26-.19.45-.24.06.07.44-.4-.34-.51.16.2.45.73.2.46-.17.4.11.3-.34.19.03.12-.31.26-.03.05-.38 1.08.8-.16.25h-.46l-.19.47.17.1-.02.45.43-.36.25.05.29 1.09-1.77 1.56-1.36-.67-.22.42-1.18.54-.94-.01-.35-.12-.18-.49-.45-.1h-.54l.03-.25-.63-.15-.49.09-.4.55-.34-.12.07-.23-.26-.07v-.47l.25-.3-.86.04-.16-.18-.28.18v-.27l-.3-.19-.5.18-.16-.7-.26.04-.03.27h-.28l-.36-.42.22-.55-.22-.1-.07.31-.18-.31-.42.47.16.37-.52 1-1.11.41-.39-.15-.64.14-.39.1.06.26-.52.2h-.17l-.24-.55-1.1-.13-.67.36-.52-.78.07-.33-.22-.35-1.36.5-.15-.2-.3.25.08.19-.32.15-1.03-1-.06.02-1.09.84-.15-.17-.48.21-.22-.2-.42.06-.1.47-.3.1-.27.41.4.15v.45l.25.05-.2.28 1.64.7-.13.62-.2.13.12.3 1.24.45.46.08.44.51.63.25-.45.1.14.27h-.32l-.57-.12-.17.4-.56-.08-.02.56-.3.14.21-.24-.25-.29-.45.37-.46-.55-.26.56-.53.37-.15-.2-.85.02-.4.6-.5.01.36.76-.14 1.07-.14.31-.53-.13-.41.2-.35.7.18.57-.25.95h-.27l-.25.74-.59-.18-.2.56-.7.35-.19.3-.24-.4.25-.54-.15-.38-1.73-1.42-1.08-.2-.18-.12.7-1.18.16-.68-.27-.5.29-.45-.16-.15-.42-.26.23-.42.23.3.45-.14.91.1.15-.43-.87.08-1.16-.45-.33-.63.48-.45-.66-.7-.38-1.04-.17-.05-.22-.64-.55-.1.06-.4-.28-.12.3-.27.05-.54.96-.38-.06-.32-.3-.06.15-1.65.22-.97-.2-.96.29-.53-.88-.48-.33-.14-.25.3-.51-.3-.47-.11-2.12-.28.02-.5-.54-.67-.32-1.2-.05-.47.73.02.25-.31.71-.08v-.34l-.54.05.04-.3-.44.05-.03-.64-.63-.33-.07.3-.58-.22-.04.17-.34-.02-.06.21-.52-.1-.22-.07.06-.33-.27-.08.12-.51-.4-.12.08-.25.3-.05-.64-.21-2.83-.9-1.08.05-.2-.48.23-.4-.72-.93.07-.47.43-.07.04-1.04.14-.13.1.18.56.53.43-.15 2.04.97.19.14-.12.61 1.12.25.09-.81.06-.65.72-.4-.2-.2.25-.28-.23-.15.13-.55.54-.22.4-.9.17-.37-.08-.73-1.7-.64.03-1.43-.2-.02-.33-.01-.79-.05-.2 1.18-.35.36-.41.36-.61-.15-.85.82-.72.22-.1.28-.27-.1-.07-.35-.88.07-.49-.12-.67.16-.29-.28-.37.24-.72-.57-.87-.28-.25-.62-.33-.24-.25-1.03-.09-.69-.57-.34-.11-.33.17-.83.62-.31.9-.91.94.4" clip-path="url(#a)"/><path fill="#fff3e2" d="m215.45 118.18.25 2.67 1.19-.03 1.34.28 2.62.64 1.8-.32.31.45.3 1.2-.28.44.06.29.83 1.02.67-.13.57-.81.4-.21.21-.25.29.04.17-.42.6-.02.03-.37.32.27 1.68-.86.29.2.32.82 1.05.21.47-.68 1-.54.82.6.46.06.24.5-.02.84-.16.19.67 1.7.95-.67-.03 2.58.42.64.14-.31.37-.17.18-.71.95.05 1.01-.8.66-.08.47-.57.66-.09.1-.3h.4l.16-.28 1.35-.74.67 1.61.4.54.37.09.31 1.47-.1 1.45-.75.26-1.09.84-1.16.57-.74-.08-.95 1.24-2 1 .25.24.02.57.58.65-.13 1.08-.32.42.08.37-.26.51-1.1.34-.58.7-.38.15.03.46-1.07-.1-.52.4v1.44l.48 1.4-.2.26-.43-.09-.66.4.06.38-.67 1.72.25.75-1.06.67-.47-.02-.91.38-.73-1.3-.25-.12v-.43l-.32-.09-1.4 1.04-.27.83.37.94-.12.28-.96.54-.72.68-.63.15-.1.4-.65.43-.66-.5-.6.2-.5.88-.63-.09-.34.32-.02 1.78v.66l.39.77-.97.96-.4-.02-.5.7.28.33-.06.63-.4.33-.11.37.42.49.11.6.78.68.72.1.14.38-.1.7.2.43-.2.92.27.36.08.75-.25 1.08-.95.3-1.46 1.25-1.06.15-.3-.17-.08-.89-.27-.31-.91-.22-.28.37-1.64.18-.72-.41-.63-.77-1.46.34-1.23-.7-.62.26-.4.37-.1.4-.3.06v1.2l-.6.94.47 2.28-1.1.44-1.8.34-.4.52-.33-.1-.66-.82-.56.25-1-.4-.44-.43-.35.07-.19-.33-.3-.06-.34-.88-.08-1.02-.23-.13-.3-1.16-.54-.7.01-.41-.31-.6.32-1.23-.17-.52.45-.44.28-.66.39-1.89-.28-.97.25-1.4-.3-.5-.61-.1-.17-1.55-.47-.26-.33-.6-.06-1.18.17-.97 1.01.24.2.37 1.05.15.36-.11.66.17.88-.36.22-1.01-.24-.8.14-.73-.41-.18-.1-.26v-1.41l.19-.34-.7-.88.16-1.08-.33-.75.41-.08.2-.3.2-.9 1.38-.63.53.22 1.43-.57-.43-1.3-.6-.58.27-.52-.04-.53-.78.33-.53-.32-.03-.23.62.12.76-.45.12-.62-.4-.59.34-.42.32-1.6.27-.53 1.1-.58.24-.51-.72-.95-.79.01-.56-.44-.3.25-.4-.01-.3-.62.26-.83-.38-.83.11-.26.88-.59-.49-1.02.09-.23-.62-.48-.59-.16.49-.62 1.29-.49.38-1.13h.4l.55-.03.37.5 1-.41.33-.56.94-.1.97-.48.29-.82-.3-.5 1.17-.12-.24-.1.13-.73-.2-1.79.43-.28.15-.85.49-.25.46-.75-.03-.26-.2-.72.87-.37 1.16.36.48.4.07.51-.23.82" clip-path="url(#a)"/><path fill="#feedd3" d="m188.48 82.29.24.53.7-.09.16.32.48-.17.67.34.83.82.21.06-.44.83.34 1 .17.37.36.2.7 1.25.3 1.88.19.26-.12.63.48.13.14.43.23.97.02.61.61.97.08.47-.07.69.2.55.43.42.25.52-.16.12.85.89v.4l.24.13.06.71 1 .34.08.42 1.1-.04 1.2.25.56-.36.36 1.16-.1.71.37.21.8-.08.9-.7.51-.07.28 1.81.34.07.88-.57 1.03-.88 1.05 1.44-.06 1.56-1.2-.71-.3-.66-.74.13-1.16-.35-.1.34-.48-.04-.4.28-.02.3-1.28.52-.9 1.08.19.76-.42.68-1.36 1.07.02.3.09.78.78.19.23-.14 2.1-.5.89.23.37.58 1.24.9.2.23.53.12.32.47 2.07 2.2.45-.06.5.3-.01 1.1-.35.92-.65.41-2.13.6-.43-.1.07-1.47-3.24-.91-.13 1.67-.02.51-2.34-.3-.85.29-.2-.27.14-.3-.07-1.66-1.21-.25-2.62 3.56-1.25-1.22-.38.09-1.53.04-.08.25-.4.2-.54-.1-.32-.3-1-.02-.42.22-.91 1.02-.35.15-.5-.66-.7-.07-.8 1.34.34.56.46.32.01.36-2.05.36-1.23-.56-.42.37h-.42l-1.14.58-.94.65.07.58 1.09 1.54-.61.68-1.76 1.28-.97 1.48-.88 1.92-.3-.24-.08-.4.17-1.13-.57-.09-.51-.35-.7.67-.25.75-1.02.45-.22.91.3.72-.02.45.08.43-.17.62-.28.18v.85l-.68.2.12.51-.21.44-.84.62-.26.87 1.75 3.29-.05.59-.7.48.1.67-.56.57-.16.1-1.24-.36-.83.14-1.82.77-1.04.85-.85-.38-.48-.82-1.05-.72-.09-.32-.16-.64-.33-.6-1.92-1.7-3.57-1.97-.52-.78-.05-.39-.2-.46.18-1.48-.4-.25v-.36l-.57-.23-.08-1.08.19-.51 1.13-.5.19-.71.5-.45-.15-.2.27-.66-.27-.42-1.01-.44.49-1.22 1.93-1.1.8.24.58-.23.44-.8.05-.57.6-.18.2-.28.05-1.28 1.08-.81-.16-.96.66-.48-.32-1.43.62-1.12-.35-.3-.83.13-.86.02-.6-.69-1.63.56-.4-.87.28-.53-.45-.47-.2-.92-.6-.3-.24-.91-.53-.03-.5-.66-.16-.77.61-.98-.24-.22.48-.88.14-.84-.13-.1.25-.22-.15-.07.26-.74-.1-.17-.24-.29.13-.39-.44-.24.2-.42-.25-.4.17-.52-.51-.27.19-.56-.25-.01.03-.36.44-.38-.06-.16 1.03-.41.02-.38.26-.05.01-.97-.66-.77-.47-1.15.07-.99.48-.79-.17-.42-.43-.83-1.15-.98-.05-.78-.28-.24-.55-1-.18-.83-.74-.77-.08-.72.18-.53.26-.14.91.36 1.11-.55 2.13-.61 1.17-.16 1 .72.88.21 2.2-2.12-.76-1.32-.08-1.05.42-.22 1.18.08.2.2 1.04-.19.67-.63.19.2.48.57.07.45.72 1.03.24.63-.15 1.42 1.11.41.08-.19 1.64-.18.94-.32-.52-1.03.5-.13.27.24.52-.06.45-.57.78-.33.83.3.57.93.24.88.83.09.42.29.38-.24.15-.28.87-.17 1.36-.2 1.15-.5.38.32.04.57-.38.62-.31.01-.12-.2-1.08.28v.19l.46.18-.14.4.44.5.5.02.02.09.17-.02-.11.28.25.38.77-.08.67-.43.83.05-.18-.46.24-.95-.12-.5.3-.6.95-.56.64-2.35.36-.1.75.18-.01-.74.5-.28.16-.58.63-.11" clip-path="url(#a)"/><path fill="#e44d35" d="m68.92 127.43-.16 1.18.17.01-.05.58-.55 1.28.58-.43 1.09.16.23.2 1.84 1.87-2.97 2.9 1.97 2.14.75.72.16.23.4-.3.26.42-.65.62-.24.51.52-.36 1.22 1.15.51-.33.68.74.44.19.52.52.17-.44.45.27.53-.71.25.24.42-.26.24-.57.6-.25.38.42-.17.14.16.24 1.24.66.68-.34.47.12.06-.2.39-.13-.06-.17h.46l.12-.2.26-.01-.12.16.21.26.39-.42.05-.4.36-1.12.4-.27.41-.74-.3-.4-.33.04-.3-.2-.65.82-.32-.2-.19-.18.47-.7-.45-1.74.46-1.3.66-.94.85-.77-1.37-1.38-1.3.51-.34-.4 1.38-.52.16.28.75-.5-.8-1.07-.3.23-.13-.2-.14.11-.94-.85-2.03-2.61 2.39-1.82 2.03 2.3.6.66-.45.5.16.3.57.02.23.41.2-.08.25.63.73.7.04.4.19-.1.26.53.2-.07.41.72.38-.23-.93-1.64.32-.32.31.1.6-.46.98 1.27.23.33-.7.82-.25.65.27.3-.23.9.3.5.25-.1.32.37-.2.38-.25.04.33.3-.08.27.5.19v.3l-.57.98-1.05-.25-.49-.44-.55.91.24.23-.4.38.22.31-.12.11.7 1-.84 1.05.03.35.17.02-.67.87-.35-.21-.54.34-.57.72.12.07-.15.25.33.12-.52.46-.69.85-.44-.32-.49.61.19.5.1-.17.22.17.17-.12.3.36.75-.33.56.53.31.5-.4.83-.04.53-.1.08-.96 1.03-.14.2-.26.44-.08-.21-.9.65-.52.66-.44.68.08.3-.3.68-.13-.05-.34.52-.2-.01-.63.77-.36-.28-.16.14-.08.38-.21.03.15.53.56.34-.59 1 .31.2-.02.26-.25.28-.43-.19-.46.5-.9-.37.15-.24-.44-.2-.4.04-.16.31-.27-.08-.84 1.27.1.13-.31.08-.27-.34-.97.13.37.53-.52 1.32.42.62.1.67-.13 2.44-.28.1.24.88-.17 1-.32.96.33.13.44-.45.64-.04-.1-.27.18-.57.51.22.25.72.4.03.47.21.63-.8.34-.13.34.27.1-.1 1.01.54.5.9.2.52.4-.25.4.6.28-.66.78-.35.29.11-.23.52.29.46-.71.22-.16.23-.27-.08-1.55 1.86-.14.15-.42 1.14-.22-.1.08-.52-.23-.12-.13-.5-1.76.45-.58-.06.2-.53-.18-.09-1.04 1.99-.1.1.55 1 .52.5.44-.02.21.84.32.57.4.4h.28l.19.34.81.05.36-.07.28-.8 1.2-1.36.14-.1 1.13-.8-.12 1.5.41-.66.84.01.22.3.78.3.17.36h.27l.27.36 1.32-.1.91.64.89.85.03.97.53.72-.2.18.15 1.62.77.72.2.48-.64 1.23.7-.1 1.88-1 .27-1.37.6-.84 2.62-2.36.37-.2.53.3.4-.27.88.21.72-.18.2.18.78-.9 1.09-.52.17-.45.74-.57.7-2.13.3-.2.83.13.95-.63.92-.68.74-.91.68.57.51 1.02 1.26-1.72 1.08-.7.02.86.68.95.22 2.36-.34 1.86-.39.63-.54.13.24.23.04.57-.96.13.09 1.06.46 1.3-.04.67-.27.38.43.36-.5.27-.02.66-.26.44-1.38.33-.23-.19-.56.02-.16.8 1.33 2.01-.22.9.06.62-1.04 2.2-.07.56 1.14.02-.09.56.71 1.38.81-.35.3.36-.29.36-.57.2.29.97-.12 2.23-1.64 1.88-.9 1.03.02 1.02.6.67-.25.1.08.3-.67.33.17 1.4-.32.23-.5.02-.5.85-.78.83-.52.13-.32.96-.86.75-.77.12h-.45l-.23.88.06.66-1.12 1.34-.95.53-.61.65-1.04.23-.32-.17-3 1.62-.81-1.44-.76-.68-.28-1.74-.4-.21-.1-.41-.07-.51-1.05-1.67-.17-.84-.6-.58-.7-.77-.47-.6-.22-1.25-.19-.5-.77-.8-1.05-.85-.32-2.95-.02-.13-.18-.57-.81-.96-1.42.03-.41-.23-1.12-1.79.4-1.08-.24-1.27-1.96-2.05-2.98-3.78-10.96-3.13-12.81-.23-7.36 4.66-7.12 1.4-6.48 4.98-.91 1.93-2.24-1.07-.46-.25-.4.04-.33-.63h-.8l-.58-.5-.46.25.14.27-.4.19.13.41 1.06.62.68.08-.14.56 1.1.62 1.94 1.04-.96 2.02-1.64 3.16-2.22-1.14-1.35-.56-1-.71-.48-.39-.7-1 .08-.43.38-.4.49-.97.12-.18-.16-.1.11-.44.83-.39.19-.52.5-.43.11-.76.85-1.02-.9-1.5-.16.22-.54.02-1.1-1.2-1.75-1.39.04.37-.68-.34-.57-1.03-2.7-.87.86-1.8.73-.89.17-.41-.15-.49-.75-.68.16-.46-.27-.3-.05-.67 1.92-1.82 1.24-3.26 1.93-2.38.53.3.73-1-.39-.3.63-.69-3.59-3.61.85-.85.35-.62 1-.88 1.17-.77.6-.7 1.4-.72.1-.47 1.23-.92.3-.7.65-.2.9-1.02.65-.37.46-.79 2.67-2.47.24-.32-.09-.4 1.08-.9 1.91-.93 1.32-.85 1.4-.5.82-.55.62-.92.33.14.58-.28-.03-.51-.26-.05.15-.13 1.22-.2.48-.7-.25-.58.48-.54.48-.32.29.08 1-.32 1.09-.5.67-.63-.04-.43 1-.88.02-.53.52-1.12-1.87-1.58-.29-1.18.76-.45-.08-.9.23-.9 1.37-2.26.43.08.08.35 1.24.14 3.57-1.4.8-.95 1.97-.99 1.93-.98.83.06.68-.37.65-.24.98.02.25-.33 1.2-1.68.13-.5 1.67-1.12 4.13-1.83.02.45.19.13-.48 1.75-.05 1.13.33.08 1.5 1.22m7.12 16.21-1.21 1.54.11.23-.35.15-.47.2-.16-.18-.47.35-.12-.27-.23.07-.4.9.35.27 1.04-.17.4-.1.48-.6.86-.26.8.33.62.58 1.22.33.48-.44-.19-.07.07-.46 1.23-1.93-.5-.47.1-.23-.72-.5-.31-.33-.36.23-.12-.18.19-.44-.88-1.02-.22.48h.2l-.34.68-1.2 1.1.1.21m-4.7 3.82.52-.62.01-.4.55-.68.14-1.4-.6-.42-.2.21-.24-.22-.38.8-.72.83-.5.07-.32.55.24.41.58.36-.04.36.31.53.65-.38m-47.5 43.5.33.24.25-.72.54.35.22-.26-.68-.6-.45.55-.2.44m70.25-68.33 1.92 2.69.46.62.24.13-.15.36-.35.21.17.22-.44.42-.69.07v.15h.41l-1.4 1.2-.02.47.35-.11.06.21-.18.05.36.22.11.34-.31.55-.33.2-.67 1.22-.3.2-.57.89-.27-.15-.17.3-.33-.36-.1.1-.15-.57.32-.3-.07-.22.51-.37-.77-.64.43-.86-.8-.5-.28.2-.41-.53-.06.41-.18-.02-.44.47-.64-.13-.38-.43 1.16-1.25-2-2.16-.23-.18.26-.3-.2-.18.44-.53-.11-.2-.63-.4-.49.29-.83-.8-2.64-2.91 5.86-3.86 2.97.78.93.32.9.68-.19.56-.22.11.12 1.1-.25.07.26.4.13 1.07-.27.44.15.24" clip-path="url(#a)"/><path fill="#dd3e2a" d="m243.5 157.86.43 1.4-.26.85.2.93.3-.13.56.13.84-.71.93-.33.84.08.79.9h.36l.57.47.47-.1-.04.67.73.61.07.63-.5.15-.15.79-.69 1.06v.48l-.27.4.11.34-.42.9.29 1.11-.1.45-.4.22.51 1.5.03 1.26.72.66.6.96-.1.28.58.56.12.35-.2.27.66.5.54.07 1.02-.45.4.25.53.31-.02.51.79 1.22-.3 1.37-.34.55.2.78-.04.54.94 1.68.1.77-.93.5.46.77-.71 1.27.63 1.82-.18.25.12.78-.15.75-.33.9-1.36.7h-.14l-.23.83.25.45-.46.6.9 1.46-.41.78-.75 1.2-.38.15-.13.44.68 1.87 1.2 1.8-.14 2.58-.4.24.27.49.4-.22.65 2.3.12.12 1.73.86.6.53.96 1.38.05.52.6.6 1.07.95.5.09-.21.85-1.74 1.02-1.03 2.13-.34-.07-.98.4-.38.6-.84.1-.82.53-.49.36 1.3 3.23.03.5-.41.8-.4.33-.06 1.23-.35.3-1.06.22-.8-.2-.43.4h-.43l-.83.68-.48.04-.43.34-.02.75-.59.68-.15.86 1.18 1.6.15 1.72.31.84-.44.1-.03.37-.35.22-.53-.03-.01.54-.3.34-.95-.03.04.89-.37.13-.2-.15.43.74 1.57.69.26 1.3-.4.62.1.27.71.5-.26 1 .55-.03.29.26 1.02-.12.52.62-.02.2.85-.07-.07.52.74.42-.05.25.38-.25.3.16v.92l.04.47.78-.33.17.18-.02.43-.28.1-.28.49-.3-.03.13.41-.13.39-.5.38-.4.73-.72.03-.2.18-.08.64-.36.62.17.82-.24.27.2.11-.43.3-.12.35h-.25l-.16.52-.25.27.19.48-.54 1.25.27.19-.24.25-.7-.13-.09.15-.38.31-1.42-.57-.36.1.02-.48.26-1-.6-.05-.24-.38-.43.34-.4-.1-.16.4-.33.08-.67-.46.04-.31-.5-.44-.7.02-1.1.44-.3.64-.67-.1-.66.43.17-1.35 1.44-2.16.54-.31.46-.38-.25-.39-.4.35-.22-.37-.18-1.67-.82-1.23.26-.91-.36-.61-.32-.63-.15-.38h-.56l-1.13-1.76.47-1.7-.4-1.29-.95.25-1.19-.69-.13-.3-.39-.09-.49-.47-.54-.67-.26-.14-.06-.47-.2-.02-.07-.29-.4-.12-.2-.32-.64.04-.13.04-.63-.35-1.43-.2-.26.02-.13.38-.39-.05.57-2.2.32-.46.69-1.12 1.08-.41.67-1 .15-.86.2.12.22-.37-.52-.3.45-.57.76.33.82-1.5-.2-1.62-.35-.02-.48-.54-.6-.27-1.46-1.66-.73-.46-.5.75-1.31.06-1.16-.75-.64-.08-.36-.43-1.05-1.96-1.4 1.37-.83 1.5-1.25-.5-.96-.06-.52-.95-.73.18-.97-.45-.77-1.13.01-.09-1.5.12-1.35.07-.05-.33-.12-.96-1.1-1.14-.22-.02.02-.35.5-.4.03-.42.27-.04-.03-.21-1.18-.16-.05-.56-.86-.12-.34-.5-.19-1.16-.47-.78-.76-.27-.04-.67-.87-.62-.48-.79-.31-1.61-.85-.41-.51.2-1.8-1.04-1.16-.14-.7-.3-.36-1.33-1.33-.39-.32-.31-.07-.4.44-.45.05-.4.58-.26-.48-1.22-1.06-1.3-.18-.71-.5-.75.42-.45.6-.22-.12-.45.21-.24.15-1.08.8-.2.14-.69.38-.13.39-.62-.17-.35.09-.9-.22-.99.68-1.07-.27-.66-.02-1.35-.45-.76.82-1.07-.64-1.03.41-.79-.9-1.31.3-.6-.25-.74.69-.9-.37-.42.03-.5-.72-.54-.22-.75-.34-.22-.56.12v-.18l-1.7.63h-.68l-.48.47-.5.02-.23.34-.65-.07-.2-.88.28-.23-.03-.43.55-.27-.5-.89.68-1.08-.18-1.12.5.06.18.22.79-.05.26-.22.41.24.95-.5.89.17.7-1.42.67-.39.98-1.38.43-.22-.04-.29.4-.52 1.8-.34 1.1-.44-.49-2.28.6-.94.01-1.2.3-.05.1-.4.4-.38.62-.25 1.23.69 1.46-.34.63.77.72.4 1.64-.17.28-.37.91.22.27.31.07.9.3.16 1.07-.15 1.46-1.25.95-.3 1.54-.22.2.27.17-.05.18.62.96.3.82-.68.88.56.5-.06.42-.4 2.7 1 1.22.5 2.29-.94.17.86.9.06.88-.79 1.73-.56 2.13-1.09.98-.89.1-.5-.79-1.1-.14-.67.15-.42 1.24-.85 1.4.52.78-.67.14-.91.38.23m.79 76.75.65.17.3-1.08-.24-.55.1-.78-.05-.04-.8-.14-.65 2.23.69.2" clip-path="url(#a)"/><path fill="#fdddb1" d="m201.09 89.24.26.4.58-.19.6.14.32-.17.2.28.22-.08.1.4.33.05.09.2.28-.09.38.57.72.02.2.54.24-.14.3.16.3.03.49-.3.66-.12 1.08-.4.03-.45.69-.1.8.29.08-.49.31.15.22-.27.33.11.74.05.1-.18.53.4 1.07.31.31-.2.38.13-.04.75.2.06.24-.23.5.08.27.31.05.85.36-.15.4-.23.57.64.19.82.8 1.46-.3.74 1.17.2.15.29.88-.24.68.07.06 1.15.33.1.7.03 1.4-.48.25.03.43 1.4-1 .6-.33.64.24.42-.43 1.32-.32.1-.03.23-.52.42.05.34-.91.13v.43l-.82.86-.31.44-.04.43-.6.3-2.03-.2-.2.04-.12.32-.95.07-.67.63-.47.2-.27-.08-.26.29-.84.06-.01-1.25-1.45-.21-.42.26-1.49.24-2.19-1.17.06-1.56-1.05-1.44-1.03.88-.88.57-.34-.07-.28-1.81-.52.07-.88.7-.8.08-.39-.2.1-.72-.35-1.16.24-.56-.25-.9.18-.43.06-.86-.27-1-.15-.23-.55-.15-.2-.8.42-1.44-.42-1.47.03-.79-.33-.53-.07-.86.82-1.01.17-.7.2-.62.28.46.22.31-.17.29.27.6.04.79" clip-path="url(#a)"/><path fill="#feeacc" d="m143.98 46.23-1.7 1.53.02.26.68.28.03.2.21.8.46.28-.28.68-.2-.64-.65.66.17.18-.4.01-.17-.24-1.22.4-.51.29-.94-.48-.17.34-.11-.03-1.17.3.04.6.3.45-.05.84-.1.35-.46.04-1.56 2.21-.42-.11-.06-.84-.22-.37-.16.03.23-1.28-1.74-.37-.73.12.27-.98.21.05.24-.56-.72-.85.29-.55-.2-.21.09-.17.7-.55.66.15.8.05.32-1.63 1.26.58-.04.8 1.15.12.43-.3 1.47-1.37-.1-.33.3-.32.26.09 1.43.48h.62l.61-.74.83-.25" clip-path="url(#a)"/><g transform="matrix(.12 0 0 -.12 37.14 16.32)"><defs><path id="b" d="M628 4666h631V2753h2294v1913h631V0h-631v2222H1259V0H628v4666z" transform="scale(.0156)"/><path id="c" d="M1959 3097q-462 0-731-361t-269-989q0-628 267-989 268-361 733-361 460 0 728 362 269 363 269 988 0 622-269 986-268 364-728 364zm0 487q750 0 1178-488 429-487 429-1349 0-859-429-1349Q2709-91 1959-91q-753 0-1180 489-426 490-426 1349 0 862 426 1349 427 488 1180 488z" transform="scale(.0156)"/><path id="d" d="M3597 1894v-281H953q38-594 358-905t892-311q331 0 642 81t618 244V178Q3153 47 2828-22t-659-69q-838 0-1327 487-489 488-489 1320 0 859 464 1363 464 505 1252 505 706 0 1117-455 411-454 411-1235zm-575 169q-6 471-264 752-258 282-683 282-481 0-770-272t-333-766l2050 4z" transform="scale(.0156)"/><path id="e" d="M191 3500h609L1894 563l1094 2937h609L2284 0h-781L191 3500z" transform="scale(.0156)"/><path id="f" d="M2194 1759q-697 0-966-159t-269-544q0-306 202-486 202-179 548-179 479 0 768 339t289 901v128h-572zm1147 238V0h-575v531q-197-318-491-470T1556-91q-537 0-855 302-317 302-317 808 0 590 395 890 396 300 1180 300h807v57q0 397-261 614t-733 217q-300 0-585-72-284-72-546-216v532q315 122 612 182 297 61 578 61 760 0 1135-394 375-393 375-1193z" transform="scale(.0156)"/><path id="g" d="M581 4863h578V1991l1716 1509h734L1753 1863 3688 0h-750L1159 1709V0H581v4863z" transform="scale(.0156)"/><path id="h" d="M3328 2828q216 388 516 572t706 184q547 0 844-383 297-382 297-1088V0h-578v2094q0 503-179 746-178 244-543 244-447 0-707-297-259-296-259-809V0h-578v2094q0 506-178 748t-550 242q-441 0-701-298-259-298-259-808V0H581v3500h578v-544q197 322 472 475t653 153q382 0 649-194 267-193 395-562z" transform="scale(.0156)"/><path id="i" d="M1172 4494v-994h1184v-447H1172V1153q0-428 117-550t477-122h590V0h-590q-666 0-919 248-253 249-253 905v1900H172v447h422v994h578z" transform="scale(.0156)"/><path id="j" d="M3272 3391v-850q-359 150-694 225-334 75-631 75-319 0-474-80-154-80-154-245 0-135 117-207 117-71 420-106l197-28q860-109 1156-359 297-250 297-785 0-559-413-841Q2681-91 1863-91q-347 0-718 55-370 55-761 164v850q335-162 686-244 352-81 714-81 329 0 494 90 166 91 166 270 0 150-114 223t-455 114l-197 25q-747 94-1047 347t-300 769q0 556 381 824 382 269 1169 269 310 0 650-47 341-46 741-146z" transform="scale(.0156)"/><path id="k" d="M500 1363v2137h1125v-350q0-284-3-714t-3-573q0-422 22-608t75-271q68-109 179-169 111-59 255-59 350 0 550 269t200 747v1728h1119V0H2900v506q-253-306-536-452-283-145-623-145-607 0-924 372T500 1363z" transform="scale(.0156)"/><path id="l" d="M538 3500h1118V0H538v3500zm0 1363h1118v-913H538v913z" transform="scale(.0156)"/><path id="m" d="M4031 1759v-318H1416q40-394 284-591t681-197q353 0 723 105 371 105 762 317V213Q3469 63 3072-14t-794-77q-950 0-1477 483-526 483-526 1355 0 856 517 1346 517 491 1424 491 825 0 1320-497 495-496 495-1328zm-1150 372q0 319-186 514-186 196-486 196-325 0-528-183t-253-527h1453z" transform="scale(.0156)"/><path id="n" d="M2631 2963q-97 56-211 82-114 27-251 27-488 0-749-317t-261-911V0H581v3500h578v-544q182 319 472 473 291 155 707 155 59 0 131-8 72-7 159-23l3-590z" transform="scale(.0156)"/><path id="o" d="M603 3500h575V0H603v3500zm0 1363h575v-729H603v729z" transform="scale(.0156)"/><path id="p" d="M3513 2113V0h-575v2094q0 497-194 743-194 247-581 247-466 0-735-297-269-296-269-809V0H581v3500h578v-544q207 316 486 472 280 156 646 156 603 0 912-373 310-373 310-1098z" transform="scale(.0156)"/><path id="q" d="M3116 1747q0 634-261 995t-717 361q-457 0-718-361t-261-995q0-634 261-995t718-361q456 0 717 361t261 995zM1159 2969q182 312 458 463 277 152 661 152 638 0 1036-506 399-506 399-1331T3314 415Q2916-91 2278-91q-384 0-661 152-276 152-458 464V0H581v4863h578V2969z" transform="scale(.0156)"/><path id="r" d="M2906 2969v1894h575V0h-575v525q-181-312-458-464-276-152-664-152-634 0-1033 506-398 507-398 1332t398 1331q399 506 1033 506 388 0 664-152 277-151 458-463zM947 1747q0-634 261-995t717-361q456 0 718 361 263 361 263 995t-263 995q-262 361-718 361t-717-361q-261-361-261-995z" transform="scale(.0156)"/><path id="s" d="M603 3500h575V-63q0-668-255-968-254-300-820-300h-219v487H38q328 0 446 152Q603-541 603-63v3563zm0 1363h575v-729H603v729z" transform="scale(.0156)"/><path id="t" d="M2375 4863v-479h-550q-309 0-430-125-120-125-120-450v-309h947v-447h-947V0H697v3053H147v447h550v244q0 584 272 851 272 268 862 268h544z" transform="scale(.0156)"/><path id="u" d="M2834 3397v-544q-243 125-506 187-262 63-544 63-428 0-642-131t-214-394q0-200 153-314t616-217l197-44q612-131 870-370t258-667q0-488-386-773Q2250-91 1575-91q-281 0-586 55T347 128v594q319-166 628-249 309-82 613-82 406 0 624 139 219 139 219 392 0 234-158 359-157 125-692 241l-200 47q-534 112-772 345-237 233-237 639 0 494 350 762 350 269 994 269 318 0 599-47 282-46 519-140z" transform="scale(.0156)"/><path id="v" d="M1222 794h634V0h-634v794zm616 459h-597v481q0 316 87 519 88 203 369 472l281 278q178 166 258 313t80 300q0 278-205 450t-542 172q-247 0-527-110-279-109-583-319v588q294 178 595 265 302 88 624 88 575 0 923-303 349-303 349-800 0-238-113-452-112-214-393-482l-275-269q-147-147-208-230t-86-161q-19-65-28-159t-9-256v-385z" transform="scale(.0156)"/></defs><use xlink:href="#b" transform="translate(0 .02)"/><use xlink:href="#c" transform="translate(75.2 .02)"/><use xlink:href="#d" transform="translate(136.38 .02)"/><use xlink:href="#DejaVuSans-20" transform="translate(197.9 .02)"/><use xlink:href="#e" transform="translate(229.69 .02)"/><use xlink:href="#f" transform="translate(288.87 .02)"/><use xlink:href="#f" transform="translate(350.15 .02)"/><use xlink:href="#g" transform="translate(411.43 .02)"/><use xlink:href="#DejaVuSans-20" transform="translate(469.34 .02)"/><use xlink:href="#g" transform="translate(501.12 .02)"/><use xlink:href="#c" transform="translate(559.03 .02)"/><use xlink:href="#h" transform="translate(620.21 .02)"/><use xlink:href="#i" transform="translate(717.63 .02)"/><use xlink:href="#DejaVuSans-20" transform="translate(756.84 .02)"/><use xlink:href="#j" transform="translate(788.62 .02)"/><use xlink:href="#k" transform="translate(848.14 .02)"/><use xlink:href="#l" transform="translate(919.34 .02)"/><use xlink:href="#j" transform="translate(953.61 .02)"/><use xlink:href="#j" transform="translate(1013.13 .02)"/><use xlink:href="#m" transform="translate(1072.66 .02)"/><use xlink:href="#DejaVuSans-20" transform="translate(1140.48 .02)"/><use xlink:href="#e" transform="translate(1172.27 .02)"/><use xlink:href="#c" transform="translate(1231.45 .02)"/><use xlink:href="#c" transform="translate(1292.63 .02)"/><use xlink:href="#n" transform="translate(1353.8 .02)"/><use xlink:href="#DejaVuSans-20" transform="translate(1394.92 .02)"/><use xlink:href="#o" transform="translate(1426.7 .02)"/><use xlink:href="#p" transform="translate(1454.5 .02)"/><use xlink:href="#DejaVuSans-20" transform="translate(1517.87 .02)"/><use xlink:href="#d" transform="translate(1549.66 .02)"/><use xlink:href="#d" transform="translate(1611.18 .02)"/><use xlink:href="#p" transform="translate(1672.7 .02)"/><use xlink:href="#DejaVuSans-20" transform="translate(1736.08 .02)"/><use xlink:href="#q" transform="translate(1767.87 .02)"/><use xlink:href="#d" transform="translate(1831.35 .02)"/><use xlink:href="#r" transform="translate(1892.87 .02)"/><use xlink:href="#n" transform="translate(1956.35 .02)"/><use xlink:href="#o" transform="translate(1997.46 .02)"/><use xlink:href="#s" transform="translate(2025.24 .02)"/><use xlink:href="#t" transform="translate(2053.03 .02)"/><use xlink:href="#u" transform="translate(2088.23 .02)"/><use xlink:href="#p" transform="translate(2140.33 .02)"/><use xlink:href="#f" transform="translate(2203.71 .02)"/><use xlink:href="#f" transform="translate(2264.99 .02)"/><use xlink:href="#h" transform="translate(2326.27 .02)"/><use xlink:href="#v" transform="translate(2423.68 .02)"/></g><defs><clipPath id="a"><path d="M7.2 22.32h357.12v228.99H7.2z"/></clipPath></defs></svg>